<svg width="896" height="230" viewBox="0 0 896 230" fill="none" xmlns="http://www.w3.org/2000/svg">
<g clip-path="url(#clip0_473_137)">
<mask id="mask0_473_137" style="mask-type:luminance" maskUnits="userSpaceOnUse" x="0" y="0" width="896" height="230">
<path d="M0 0H896V230H0V0Z" fill="white"/>
</mask>
<g mask="url(#mask0_473_137)">
<path d="M0 0H896V230H0V0Z" fill="#020420"/>
<mask id="mask1_473_137" style="mask-type:luminance" maskUnits="userSpaceOnUse" x="-82" y="-211" width="1046" height="656">
<path d="M-81.0605 -210.34H963.999V445H-81.0605V-210.34Z" fill="white"/>
</mask>
<g mask="url(#mask1_473_137)">
<g opacity="0.5" filter="url(#filter0_f_473_137)">
<path d="M-81.002 -0.999512H963.998L945.998 33.5005L333.498 119L-81.002 199V-0.999512Z" fill="url(#paint0_linear_473_137)"/>
</g>
</g>
<path d="M863.16 41H876.48C876.905 41.0001 877.312 40.8507 877.68 40.64C878.048 40.4293 878.428 40.1649 878.64 39.8C878.852 39.4351 879 39.0212 879 38.5999C879 38.1786 878.853 37.7648 878.64 37.4001L869.64 21.92C869.428 21.5552 869.168 21.2906 868.8 21.08C868.432 20.8694 867.905 20.72 867.48 20.72C867.055 20.72 866.648 20.8694 866.28 21.08C865.912 21.2906 865.652 21.5552 865.44 21.92L863.16 25.88L858.6 18.1997C858.387 17.8349 858.128 17.4506 857.76 17.24C857.392 17.0294 856.985 17 856.56 17C856.135 17 855.728 17.0294 855.36 17.24C854.992 17.4506 854.613 17.8349 854.4 18.1997L843.24 37.4001C843.027 37.7648 843 38.1786 843 38.5999C843 39.0212 843.028 39.4351 843.24 39.7999C843.452 40.1648 843.832 40.4293 844.2 40.64C844.568 40.8507 844.975 41.0001 845.4 41H853.8C857.128 41 859.551 39.5069 861.24 36.68L865.32 29.6L867.48 25.88L874.08 37.16H865.32L863.16 41ZM853.68 37.16H847.8L856.56 22.04L861 29.6L858.059 34.727C856.937 36.5612 855.659 37.16 853.68 37.16Z" fill="#00DC82"/>
</g>
<path d="M298.719 87.25V110H294.031V87.25H298.719ZM307.781 96.9688V100.625H297.438V96.9688H307.781ZM308.875 87.25V90.9219H297.438V87.25H308.875ZM318.75 110.312C317.438 110.312 316.26 110.104 315.219 109.688C314.177 109.26 313.292 108.672 312.562 107.922C311.844 107.172 311.292 106.302 310.906 105.312C310.521 104.312 310.328 103.25 310.328 102.125V101.5C310.328 100.219 310.51 99.0469 310.875 97.9844C311.24 96.9219 311.76 96 312.438 95.2188C313.125 94.4375 313.958 93.8385 314.938 93.4219C315.917 92.9948 317.021 92.7812 318.25 92.7812C319.448 92.7812 320.51 92.9792 321.438 93.375C322.365 93.7708 323.141 94.3333 323.766 95.0625C324.401 95.7917 324.88 96.6667 325.203 97.6875C325.526 98.6979 325.688 99.8229 325.688 101.062V102.938H312.25V99.9375H321.266V99.5938C321.266 98.9688 321.151 98.4115 320.922 97.9219C320.703 97.4219 320.37 97.026 319.922 96.7344C319.474 96.4427 318.901 96.2969 318.203 96.2969C317.609 96.2969 317.099 96.4271 316.672 96.6875C316.245 96.9479 315.896 97.3125 315.625 97.7812C315.365 98.25 315.167 98.8021 315.031 99.4375C314.906 100.062 314.844 100.75 314.844 101.5V102.125C314.844 102.802 314.938 103.427 315.125 104C315.323 104.573 315.599 105.068 315.953 105.484C316.318 105.901 316.755 106.224 317.266 106.453C317.786 106.682 318.375 106.797 319.031 106.797C319.844 106.797 320.599 106.641 321.297 106.328C322.005 106.005 322.615 105.521 323.125 104.875L325.312 107.25C324.958 107.76 324.474 108.25 323.859 108.719C323.255 109.188 322.526 109.573 321.672 109.875C320.818 110.167 319.844 110.312 318.75 110.312ZM337.375 106.188V98.6562C337.375 98.1146 337.286 97.651 337.109 97.2656C336.932 96.8698 336.656 96.5625 336.281 96.3438C335.917 96.125 335.443 96.0156 334.859 96.0156C334.359 96.0156 333.927 96.1042 333.562 96.2812C333.198 96.4479 332.917 96.6927 332.719 97.0156C332.521 97.3281 332.422 97.6979 332.422 98.125H327.922C327.922 97.4062 328.089 96.724 328.422 96.0781C328.755 95.4323 329.24 94.8646 329.875 94.375C330.51 93.875 331.266 93.4844 332.141 93.2031C333.026 92.9219 334.016 92.7812 335.109 92.7812C336.422 92.7812 337.589 93 338.609 93.4375C339.63 93.875 340.432 94.5312 341.016 95.4062C341.609 96.2812 341.906 97.375 341.906 98.6875V105.922C341.906 106.849 341.964 107.609 342.078 108.203C342.193 108.786 342.359 109.297 342.578 109.734V110H338.031C337.812 109.542 337.646 108.969 337.531 108.281C337.427 107.583 337.375 106.885 337.375 106.188ZM337.969 99.7031L338 102.25H335.484C334.891 102.25 334.375 102.318 333.938 102.453C333.5 102.589 333.141 102.781 332.859 103.031C332.578 103.271 332.37 103.552 332.234 103.875C332.109 104.198 332.047 104.552 332.047 104.938C332.047 105.323 332.135 105.672 332.312 105.984C332.49 106.286 332.745 106.526 333.078 106.703C333.411 106.87 333.802 106.953 334.25 106.953C334.927 106.953 335.516 106.818 336.016 106.547C336.516 106.276 336.901 105.943 337.172 105.547C337.453 105.151 337.599 104.776 337.609 104.422L338.797 106.328C338.63 106.755 338.401 107.198 338.109 107.656C337.828 108.115 337.469 108.547 337.031 108.953C336.594 109.349 336.068 109.677 335.453 109.938C334.839 110.188 334.109 110.312 333.266 110.312C332.193 110.312 331.219 110.099 330.344 109.672C329.479 109.234 328.792 108.635 328.281 107.875C327.781 107.104 327.531 106.229 327.531 105.25C327.531 104.365 327.698 103.578 328.031 102.891C328.365 102.203 328.854 101.625 329.5 101.156C330.156 100.677 330.974 100.318 331.953 100.078C332.932 99.8281 334.068 99.7031 335.359 99.7031H337.969ZM353.656 93.0938V96.2812H343.812V93.0938H353.656ZM346.25 88.9219H350.75V104.906C350.75 105.396 350.812 105.771 350.938 106.031C351.073 106.292 351.271 106.474 351.531 106.578C351.792 106.672 352.12 106.719 352.516 106.719C352.797 106.719 353.047 106.708 353.266 106.688C353.495 106.656 353.688 106.625 353.844 106.594L353.859 109.906C353.474 110.031 353.057 110.13 352.609 110.203C352.161 110.276 351.667 110.312 351.125 110.312C350.135 110.312 349.271 110.151 348.531 109.828C347.802 109.495 347.24 108.964 346.844 108.234C346.448 107.505 346.25 106.547 346.25 105.359V88.9219ZM366.219 105.953V93.0938H370.719V110H366.484L366.219 105.953ZM366.719 102.484L368.047 102.453C368.047 103.578 367.917 104.625 367.656 105.594C367.396 106.552 367.005 107.385 366.484 108.094C365.964 108.792 365.307 109.339 364.516 109.734C363.724 110.12 362.792 110.312 361.719 110.312C360.896 110.312 360.135 110.198 359.438 109.969C358.75 109.729 358.156 109.359 357.656 108.859C357.167 108.349 356.781 107.698 356.5 106.906C356.229 106.104 356.094 105.141 356.094 104.016V93.0938H360.594V104.047C360.594 104.547 360.651 104.969 360.766 105.312C360.891 105.656 361.062 105.938 361.281 106.156C361.5 106.375 361.755 106.531 362.047 106.625C362.349 106.719 362.682 106.766 363.047 106.766C363.974 106.766 364.703 106.578 365.234 106.203C365.776 105.828 366.156 105.318 366.375 104.672C366.604 104.016 366.719 103.286 366.719 102.484ZM378.656 96.7812V110H374.156V93.0938H378.391L378.656 96.7812ZM383.75 92.9844L383.672 97.1562C383.453 97.125 383.188 97.099 382.875 97.0781C382.573 97.0469 382.297 97.0312 382.047 97.0312C381.411 97.0312 380.859 97.1146 380.391 97.2812C379.932 97.4375 379.547 97.6719 379.234 97.9844C378.932 98.2969 378.703 98.6771 378.547 99.125C378.401 99.5729 378.318 100.083 378.297 100.656L377.391 100.375C377.391 99.2812 377.5 98.276 377.719 97.3594C377.938 96.4323 378.255 95.625 378.672 94.9375C379.099 94.25 379.62 93.7188 380.234 93.3438C380.849 92.9688 381.552 92.7812 382.344 92.7812C382.594 92.7812 382.849 92.8021 383.109 92.8438C383.37 92.875 383.583 92.9219 383.75 92.9844ZM393.344 110.312C392.031 110.312 390.854 110.104 389.812 109.688C388.771 109.26 387.885 108.672 387.156 107.922C386.438 107.172 385.885 106.302 385.5 105.312C385.115 104.312 384.922 103.25 384.922 102.125V101.5C384.922 100.219 385.104 99.0469 385.469 97.9844C385.833 96.9219 386.354 96 387.031 95.2188C387.719 94.4375 388.552 93.8385 389.531 93.4219C390.51 92.9948 391.615 92.7812 392.844 92.7812C394.042 92.7812 395.104 92.9792 396.031 93.375C396.958 93.7708 397.734 94.3333 398.359 95.0625C398.995 95.7917 399.474 96.6667 399.797 97.6875C400.12 98.6979 400.281 99.8229 400.281 101.062V102.938H386.844V99.9375H395.859V99.5938C395.859 98.9688 395.745 98.4115 395.516 97.9219C395.297 97.4219 394.964 97.026 394.516 96.7344C394.068 96.4427 393.495 96.2969 392.797 96.2969C392.203 96.2969 391.693 96.4271 391.266 96.6875C390.839 96.9479 390.49 97.3125 390.219 97.7812C389.958 98.25 389.76 98.8021 389.625 99.4375C389.5 100.062 389.438 100.75 389.438 101.5V102.125C389.438 102.802 389.531 103.427 389.719 104C389.917 104.573 390.193 105.068 390.547 105.484C390.911 105.901 391.349 106.224 391.859 106.453C392.38 106.682 392.969 106.797 393.625 106.797C394.438 106.797 395.193 106.641 395.891 106.328C396.599 106.005 397.208 105.521 397.719 104.875L399.906 107.25C399.552 107.76 399.068 108.25 398.453 108.719C397.849 109.188 397.12 109.573 396.266 109.875C395.411 110.167 394.438 110.312 393.344 110.312ZM415.781 87.25V110H411.094V87.25H415.781ZM424.844 96.9688V100.625H414.5V96.9688H424.844ZM425.938 87.25V90.9219H414.5V87.25H425.938ZM433.125 86V110H428.609V86H433.125ZM445.969 106.188V98.6562C445.969 98.1146 445.88 97.651 445.703 97.2656C445.526 96.8698 445.25 96.5625 444.875 96.3438C444.51 96.125 444.036 96.0156 443.453 96.0156C442.953 96.0156 442.521 96.1042 442.156 96.2812C441.792 96.4479 441.51 96.6927 441.312 97.0156C441.115 97.3281 441.016 97.6979 441.016 98.125H436.516C436.516 97.4062 436.682 96.724 437.016 96.0781C437.349 95.4323 437.833 94.8646 438.469 94.375C439.104 93.875 439.859 93.4844 440.734 93.2031C441.62 92.9219 442.609 92.7812 443.703 92.7812C445.016 92.7812 446.182 93 447.203 93.4375C448.224 93.875 449.026 94.5312 449.609 95.4062C450.203 96.2812 450.5 97.375 450.5 98.6875V105.922C450.5 106.849 450.557 107.609 450.672 108.203C450.786 108.786 450.953 109.297 451.172 109.734V110H446.625C446.406 109.542 446.24 108.969 446.125 108.281C446.021 107.583 445.969 106.885 445.969 106.188ZM446.562 99.7031L446.594 102.25H444.078C443.484 102.25 442.969 102.318 442.531 102.453C442.094 102.589 441.734 102.781 441.453 103.031C441.172 103.271 440.964 103.552 440.828 103.875C440.703 104.198 440.641 104.552 440.641 104.938C440.641 105.323 440.729 105.672 440.906 105.984C441.083 106.286 441.339 106.526 441.672 106.703C442.005 106.87 442.396 106.953 442.844 106.953C443.521 106.953 444.109 106.818 444.609 106.547C445.109 106.276 445.495 105.943 445.766 105.547C446.047 105.151 446.193 104.776 446.203 104.422L447.391 106.328C447.224 106.755 446.995 107.198 446.703 107.656C446.422 108.115 446.062 108.547 445.625 108.953C445.188 109.349 444.661 109.677 444.047 109.938C443.432 110.188 442.703 110.312 441.859 110.312C440.786 110.312 439.812 110.099 438.938 109.672C438.073 109.234 437.385 108.635 436.875 107.875C436.375 107.104 436.125 106.229 436.125 105.25C436.125 104.365 436.292 103.578 436.625 102.891C436.958 102.203 437.448 101.625 438.094 101.156C438.75 100.677 439.568 100.318 440.547 100.078C441.526 99.8281 442.661 99.7031 443.953 99.7031H446.562ZM464.672 93.0938H468.75V109.438C468.75 110.979 468.406 112.286 467.719 113.359C467.042 114.443 466.094 115.26 464.875 115.812C463.656 116.375 462.24 116.656 460.625 116.656C459.917 116.656 459.167 116.562 458.375 116.375C457.594 116.188 456.844 115.896 456.125 115.5C455.417 115.104 454.823 114.604 454.344 114L456.328 111.344C456.849 111.948 457.453 112.417 458.141 112.75C458.828 113.094 459.589 113.266 460.422 113.266C461.234 113.266 461.922 113.115 462.484 112.812C463.047 112.521 463.479 112.089 463.781 111.516C464.083 110.953 464.234 110.271 464.234 109.469V97L464.672 93.0938ZM453.297 101.75V101.422C453.297 100.13 453.453 98.9583 453.766 97.9062C454.089 96.8438 454.542 95.9323 455.125 95.1719C455.719 94.4115 456.438 93.8229 457.281 93.4062C458.125 92.9896 459.078 92.7812 460.141 92.7812C461.266 92.7812 462.208 92.9896 462.969 93.4062C463.729 93.8229 464.354 94.4167 464.844 95.1875C465.333 95.9479 465.714 96.849 465.984 97.8906C466.266 98.9219 466.484 100.052 466.641 101.281V102C466.484 103.177 466.25 104.271 465.938 105.281C465.625 106.292 465.214 107.177 464.703 107.938C464.193 108.688 463.557 109.271 462.797 109.688C462.047 110.104 461.151 110.312 460.109 110.312C459.068 110.312 458.125 110.099 457.281 109.672C456.448 109.245 455.734 108.646 455.141 107.875C454.547 107.104 454.089 106.198 453.766 105.156C453.453 104.115 453.297 102.979 453.297 101.75ZM457.797 101.422V101.75C457.797 102.448 457.865 103.099 458 103.703C458.135 104.307 458.344 104.844 458.625 105.312C458.917 105.771 459.276 106.13 459.703 106.391C460.141 106.641 460.656 106.766 461.25 106.766C462.073 106.766 462.745 106.594 463.266 106.25C463.786 105.896 464.177 105.411 464.438 104.797C464.698 104.182 464.849 103.474 464.891 102.672V100.625C464.87 99.9688 464.781 99.3802 464.625 98.8594C464.469 98.3281 464.25 97.875 463.969 97.5C463.688 97.125 463.323 96.8333 462.875 96.625C462.427 96.4167 461.896 96.3125 461.281 96.3125C460.688 96.3125 460.172 96.4479 459.734 96.7188C459.307 96.9792 458.948 97.3385 458.656 97.7969C458.375 98.2552 458.161 98.7969 458.016 99.4219C457.87 100.036 457.797 100.703 457.797 101.422ZM481.391 105.328C481.391 105.005 481.297 104.714 481.109 104.453C480.922 104.193 480.573 103.953 480.062 103.734C479.562 103.505 478.839 103.297 477.891 103.109C477.036 102.922 476.24 102.688 475.5 102.406C474.771 102.115 474.135 101.766 473.594 101.359C473.062 100.953 472.646 100.474 472.344 99.9219C472.042 99.3594 471.891 98.7188 471.891 98C471.891 97.2917 472.042 96.625 472.344 96C472.656 95.375 473.099 94.8229 473.672 94.3438C474.255 93.8542 474.964 93.474 475.797 93.2031C476.641 92.9219 477.589 92.7812 478.641 92.7812C480.109 92.7812 481.37 93.0156 482.422 93.4844C483.484 93.9531 484.297 94.599 484.859 95.4219C485.432 96.2344 485.719 97.1615 485.719 98.2031H481.219C481.219 97.7656 481.125 97.375 480.938 97.0312C480.76 96.6771 480.479 96.401 480.094 96.2031C479.719 95.9948 479.229 95.8906 478.625 95.8906C478.125 95.8906 477.693 95.9792 477.328 96.1562C476.964 96.3229 476.682 96.5521 476.484 96.8438C476.297 97.125 476.203 97.4375 476.203 97.7812C476.203 98.0417 476.255 98.276 476.359 98.4844C476.474 98.6823 476.656 98.8646 476.906 99.0312C477.156 99.1979 477.479 99.3542 477.875 99.5C478.281 99.6354 478.781 99.7604 479.375 99.875C480.594 100.125 481.682 100.453 482.641 100.859C483.599 101.255 484.359 101.797 484.922 102.484C485.484 103.161 485.766 104.052 485.766 105.156C485.766 105.906 485.599 106.594 485.266 107.219C484.932 107.844 484.453 108.391 483.828 108.859C483.203 109.318 482.453 109.677 481.578 109.938C480.714 110.188 479.74 110.312 478.656 110.312C477.083 110.312 475.75 110.031 474.656 109.469C473.573 108.906 472.75 108.193 472.188 107.328C471.635 106.453 471.359 105.557 471.359 104.641H475.625C475.646 105.255 475.802 105.75 476.094 106.125C476.396 106.5 476.776 106.771 477.234 106.938C477.703 107.104 478.208 107.188 478.75 107.188C479.333 107.188 479.818 107.109 480.203 106.953C480.589 106.786 480.88 106.568 481.078 106.297C481.286 106.016 481.391 105.693 481.391 105.328ZM499.078 87.25H503.047L508.891 103.953L514.734 87.25H518.703L510.484 110H507.297L499.078 87.25ZM496.938 87.25H500.891L501.609 103.531V110H496.938V87.25ZM516.891 87.25H520.859V110H516.172V103.531L516.891 87.25ZM523.969 101.719V101.391C523.969 100.151 524.146 99.0104 524.5 97.9688C524.854 96.9167 525.37 96.0052 526.047 95.2344C526.724 94.4635 527.557 93.8646 528.547 93.4375C529.536 93 530.672 92.7812 531.953 92.7812C533.234 92.7812 534.375 93 535.375 93.4375C536.375 93.8646 537.214 94.4635 537.891 95.2344C538.578 96.0052 539.099 96.9167 539.453 97.9688C539.807 99.0104 539.984 100.151 539.984 101.391V101.719C539.984 102.948 539.807 104.089 539.453 105.141C539.099 106.182 538.578 107.094 537.891 107.875C537.214 108.646 536.38 109.245 535.391 109.672C534.401 110.099 533.266 110.312 531.984 110.312C530.703 110.312 529.562 110.099 528.562 109.672C527.573 109.245 526.734 108.646 526.047 107.875C525.37 107.094 524.854 106.182 524.5 105.141C524.146 104.089 523.969 102.948 523.969 101.719ZM528.469 101.391V101.719C528.469 102.427 528.531 103.089 528.656 103.703C528.781 104.318 528.979 104.859 529.25 105.328C529.531 105.786 529.896 106.146 530.344 106.406C530.792 106.667 531.339 106.797 531.984 106.797C532.609 106.797 533.146 106.667 533.594 106.406C534.042 106.146 534.401 105.786 534.672 105.328C534.943 104.859 535.141 104.318 535.266 103.703C535.401 103.089 535.469 102.427 535.469 101.719V101.391C535.469 100.703 535.401 100.057 535.266 99.4531C535.141 98.8385 534.938 98.2969 534.656 97.8281C534.385 97.349 534.026 96.974 533.578 96.7031C533.13 96.4323 532.589 96.2969 531.953 96.2969C531.318 96.2969 530.776 96.4323 530.328 96.7031C529.891 96.974 529.531 97.349 529.25 97.8281C528.979 98.2969 528.781 98.8385 528.656 99.4531C528.531 100.057 528.469 100.703 528.469 101.391ZM552.734 106.312V86H557.266V110H553.188L552.734 106.312ZM542.047 101.75V101.422C542.047 100.13 542.193 98.9583 542.484 97.9062C542.776 96.8438 543.203 95.9323 543.766 95.1719C544.328 94.4115 545.021 93.8229 545.844 93.4062C546.667 92.9896 547.604 92.7812 548.656 92.7812C549.646 92.7812 550.51 92.9896 551.25 93.4062C552 93.8229 552.635 94.4167 553.156 95.1875C553.688 95.9479 554.115 96.849 554.438 97.8906C554.76 98.9219 554.995 100.052 555.141 101.281V102C554.995 103.177 554.76 104.271 554.438 105.281C554.115 106.292 553.688 107.177 553.156 107.938C552.635 108.688 552 109.271 551.25 109.688C550.5 110.104 549.625 110.312 548.625 110.312C547.573 110.312 546.635 110.099 545.812 109.672C545 109.245 544.312 108.646 543.75 107.875C543.198 107.104 542.776 106.198 542.484 105.156C542.193 104.115 542.047 102.979 542.047 101.75ZM546.547 101.422V101.75C546.547 102.448 546.599 103.099 546.703 103.703C546.818 104.307 547 104.844 547.25 105.312C547.51 105.771 547.844 106.13 548.25 106.391C548.667 106.641 549.172 106.766 549.766 106.766C550.536 106.766 551.172 106.594 551.672 106.25C552.172 105.896 552.552 105.411 552.812 104.797C553.083 104.182 553.24 103.474 553.281 102.672V100.625C553.25 99.9688 553.156 99.3802 553 98.8594C552.854 98.3281 552.635 97.875 552.344 97.5C552.062 97.125 551.708 96.8333 551.281 96.625C550.865 96.4167 550.37 96.3125 549.797 96.3125C549.214 96.3125 548.714 96.4479 548.297 96.7188C547.88 96.9792 547.542 97.3385 547.281 97.7969C547.031 98.2552 546.844 98.7969 546.719 99.4219C546.604 100.036 546.547 100.703 546.547 101.422ZM570.781 105.953V93.0938H575.281V110H571.047L570.781 105.953ZM571.281 102.484L572.609 102.453C572.609 103.578 572.479 104.625 572.219 105.594C571.958 106.552 571.568 107.385 571.047 108.094C570.526 108.792 569.87 109.339 569.078 109.734C568.286 110.12 567.354 110.312 566.281 110.312C565.458 110.312 564.698 110.198 564 109.969C563.312 109.729 562.719 109.359 562.219 108.859C561.729 108.349 561.344 107.698 561.062 106.906C560.792 106.104 560.656 105.141 560.656 104.016V93.0938H565.156V104.047C565.156 104.547 565.214 104.969 565.328 105.312C565.453 105.656 565.625 105.938 565.844 106.156C566.062 106.375 566.318 106.531 566.609 106.625C566.911 106.719 567.245 106.766 567.609 106.766C568.536 106.766 569.266 106.578 569.797 106.203C570.339 105.828 570.719 105.318 570.938 104.672C571.167 104.016 571.281 103.286 571.281 102.484ZM583.469 86V110H578.953V86H583.469ZM594.969 110.312C593.656 110.312 592.479 110.104 591.438 109.688C590.396 109.26 589.51 108.672 588.781 107.922C588.062 107.172 587.51 106.302 587.125 105.312C586.74 104.312 586.547 103.25 586.547 102.125V101.5C586.547 100.219 586.729 99.0469 587.094 97.9844C587.458 96.9219 587.979 96 588.656 95.2188C589.344 94.4375 590.177 93.8385 591.156 93.4219C592.135 92.9948 593.24 92.7812 594.469 92.7812C595.667 92.7812 596.729 92.9792 597.656 93.375C598.583 93.7708 599.359 94.3333 599.984 95.0625C600.62 95.7917 601.099 96.6667 601.422 97.6875C601.745 98.6979 601.906 99.8229 601.906 101.062V102.938H588.469V99.9375H597.484V99.5938C597.484 98.9688 597.37 98.4115 597.141 97.9219C596.922 97.4219 596.589 97.026 596.141 96.7344C595.693 96.4427 595.12 96.2969 594.422 96.2969C593.828 96.2969 593.318 96.4271 592.891 96.6875C592.464 96.9479 592.115 97.3125 591.844 97.7812C591.583 98.25 591.385 98.8021 591.25 99.4375C591.125 100.062 591.062 100.75 591.062 101.5V102.125C591.062 102.802 591.156 103.427 591.344 104C591.542 104.573 591.818 105.068 592.172 105.484C592.536 105.901 592.974 106.224 593.484 106.453C594.005 106.682 594.594 106.797 595.25 106.797C596.062 106.797 596.818 106.641 597.516 106.328C598.224 106.005 598.833 105.521 599.344 104.875L601.531 107.25C601.177 107.76 600.693 108.25 600.078 108.719C599.474 109.188 598.745 109.573 597.891 109.875C597.036 110.167 596.062 110.312 594.969 110.312Z" fill="#00DC82"/>
<path d="M228.273 142.467V144H221.164V142.467H228.273ZM221.535 129.781V144H219.65V129.781H221.535ZM232.121 133.434V144H230.305V133.434H232.121ZM230.168 130.631C230.168 130.338 230.256 130.09 230.432 129.889C230.614 129.687 230.881 129.586 231.232 129.586C231.577 129.586 231.841 129.687 232.023 129.889C232.212 130.09 232.307 130.338 232.307 130.631C232.307 130.911 232.212 131.152 232.023 131.354C231.841 131.549 231.577 131.646 231.232 131.646C230.881 131.646 230.614 131.549 230.432 131.354C230.256 131.152 230.168 130.911 230.168 130.631ZM241.867 133.434H243.508V143.775C243.508 144.706 243.319 145.501 242.941 146.158C242.564 146.816 242.036 147.314 241.359 147.652C240.689 147.997 239.914 148.17 239.035 148.17C238.671 148.17 238.241 148.111 237.746 147.994C237.258 147.883 236.776 147.691 236.301 147.418C235.832 147.151 235.438 146.79 235.119 146.334L236.066 145.26C236.509 145.794 236.971 146.165 237.453 146.373C237.941 146.581 238.423 146.686 238.898 146.686C239.471 146.686 239.966 146.578 240.383 146.363C240.799 146.148 241.122 145.829 241.35 145.406C241.584 144.99 241.701 144.475 241.701 143.863V135.758L241.867 133.434ZM234.592 138.834V138.629C234.592 137.822 234.686 137.089 234.875 136.432C235.07 135.768 235.347 135.198 235.705 134.723C236.07 134.247 236.509 133.883 237.023 133.629C237.538 133.368 238.117 133.238 238.762 133.238C239.426 133.238 240.005 133.355 240.5 133.59C241.001 133.818 241.424 134.153 241.77 134.596C242.121 135.032 242.398 135.559 242.6 136.178C242.801 136.796 242.941 137.496 243.02 138.277V139.176C242.948 139.951 242.808 140.647 242.6 141.266C242.398 141.884 242.121 142.411 241.77 142.848C241.424 143.284 241.001 143.619 240.5 143.854C239.999 144.081 239.413 144.195 238.742 144.195C238.111 144.195 237.538 144.062 237.023 143.795C236.516 143.528 236.079 143.154 235.715 142.672C235.35 142.19 235.07 141.624 234.875 140.973C234.686 140.315 234.592 139.602 234.592 138.834ZM236.398 138.629V138.834C236.398 139.361 236.451 139.856 236.555 140.318C236.665 140.781 236.831 141.188 237.053 141.539C237.281 141.891 237.57 142.167 237.922 142.369C238.273 142.564 238.693 142.662 239.182 142.662C239.781 142.662 240.275 142.535 240.666 142.281C241.057 142.027 241.366 141.692 241.594 141.275C241.828 140.859 242.01 140.406 242.141 139.918V137.564C242.069 137.206 241.958 136.861 241.809 136.529C241.665 136.191 241.477 135.891 241.242 135.631C241.014 135.364 240.731 135.152 240.393 134.996C240.054 134.84 239.657 134.762 239.201 134.762C238.706 134.762 238.28 134.866 237.922 135.074C237.57 135.276 237.281 135.556 237.053 135.914C236.831 136.266 236.665 136.676 236.555 137.145C236.451 137.607 236.398 138.102 236.398 138.629ZM248.059 129V144H246.252V129H248.059ZM247.629 138.316L246.877 138.287C246.883 137.564 246.991 136.897 247.199 136.285C247.408 135.667 247.701 135.13 248.078 134.674C248.456 134.218 248.905 133.867 249.426 133.619C249.953 133.365 250.536 133.238 251.174 133.238C251.695 133.238 252.163 133.31 252.58 133.453C252.997 133.59 253.352 133.811 253.645 134.117C253.944 134.423 254.172 134.82 254.328 135.309C254.484 135.79 254.562 136.38 254.562 137.076V144H252.746V137.057C252.746 136.503 252.665 136.061 252.502 135.729C252.339 135.39 252.102 135.146 251.789 134.996C251.477 134.84 251.092 134.762 250.637 134.762C250.188 134.762 249.777 134.856 249.406 135.045C249.042 135.234 248.726 135.494 248.459 135.826C248.199 136.158 247.993 136.539 247.844 136.969C247.701 137.392 247.629 137.841 247.629 138.316ZM261.691 133.434V134.82H255.979V133.434H261.691ZM257.912 130.865H259.719V141.383C259.719 141.741 259.774 142.011 259.885 142.193C259.995 142.376 260.139 142.496 260.314 142.555C260.49 142.613 260.679 142.643 260.881 142.643C261.031 142.643 261.187 142.63 261.35 142.604C261.519 142.571 261.646 142.545 261.73 142.525L261.74 144C261.597 144.046 261.408 144.088 261.174 144.127C260.946 144.173 260.669 144.195 260.344 144.195C259.901 144.195 259.494 144.107 259.123 143.932C258.752 143.756 258.456 143.463 258.234 143.053C258.02 142.636 257.912 142.076 257.912 141.373V130.865ZM266.486 142.125L269.201 133.434H270.393L270.158 135.162L267.395 144H266.232L266.486 142.125ZM264.66 133.434L266.975 142.223L267.141 144H265.92L262.854 133.434H264.66ZM272.99 142.154L275.197 133.434H276.994L273.928 144H272.717L272.99 142.154ZM270.656 133.434L273.312 141.979L273.615 144H272.463L269.621 135.143L269.387 133.434H270.656ZM283.234 144.195C282.499 144.195 281.831 144.072 281.232 143.824C280.64 143.57 280.129 143.215 279.699 142.76C279.276 142.304 278.951 141.764 278.723 141.139C278.495 140.514 278.381 139.83 278.381 139.088V138.678C278.381 137.818 278.508 137.053 278.762 136.383C279.016 135.706 279.361 135.133 279.797 134.664C280.233 134.195 280.728 133.84 281.281 133.6C281.835 133.359 282.408 133.238 283 133.238C283.755 133.238 284.406 133.368 284.953 133.629C285.507 133.889 285.959 134.254 286.311 134.723C286.662 135.185 286.923 135.732 287.092 136.363C287.261 136.988 287.346 137.672 287.346 138.414V139.225H279.455V137.75H285.539V137.613C285.513 137.145 285.415 136.689 285.246 136.246C285.083 135.803 284.823 135.439 284.465 135.152C284.107 134.866 283.618 134.723 283 134.723C282.59 134.723 282.212 134.811 281.867 134.986C281.522 135.156 281.226 135.41 280.979 135.748C280.731 136.087 280.539 136.5 280.402 136.988C280.266 137.477 280.197 138.04 280.197 138.678V139.088C280.197 139.589 280.266 140.061 280.402 140.504C280.546 140.94 280.751 141.324 281.018 141.656C281.291 141.988 281.62 142.249 282.004 142.438C282.395 142.626 282.837 142.721 283.332 142.721C283.97 142.721 284.51 142.59 284.953 142.33C285.396 142.07 285.783 141.721 286.115 141.285L287.209 142.154C286.981 142.499 286.691 142.828 286.34 143.141C285.988 143.453 285.555 143.707 285.041 143.902C284.533 144.098 283.931 144.195 283.234 144.195ZM291.418 133.434V144H289.602V133.434H291.418ZM289.465 130.631C289.465 130.338 289.553 130.09 289.729 129.889C289.911 129.687 290.178 129.586 290.529 129.586C290.874 129.586 291.138 129.687 291.32 129.889C291.509 130.09 291.604 130.338 291.604 130.631C291.604 130.911 291.509 131.152 291.32 131.354C291.138 131.549 290.874 131.646 290.529 131.646C290.178 131.646 289.911 131.549 289.729 131.354C289.553 131.152 289.465 130.911 289.465 130.631ZM301.164 133.434H302.805V143.775C302.805 144.706 302.616 145.501 302.238 146.158C301.861 146.816 301.333 147.314 300.656 147.652C299.986 147.997 299.211 148.17 298.332 148.17C297.967 148.17 297.538 148.111 297.043 147.994C296.555 147.883 296.073 147.691 295.598 147.418C295.129 147.151 294.735 146.79 294.416 146.334L295.363 145.26C295.806 145.794 296.268 146.165 296.75 146.373C297.238 146.581 297.72 146.686 298.195 146.686C298.768 146.686 299.263 146.578 299.68 146.363C300.096 146.148 300.419 145.829 300.646 145.406C300.881 144.99 300.998 144.475 300.998 143.863V135.758L301.164 133.434ZM293.889 138.834V138.629C293.889 137.822 293.983 137.089 294.172 136.432C294.367 135.768 294.644 135.198 295.002 134.723C295.367 134.247 295.806 133.883 296.32 133.629C296.835 133.368 297.414 133.238 298.059 133.238C298.723 133.238 299.302 133.355 299.797 133.59C300.298 133.818 300.721 134.153 301.066 134.596C301.418 135.032 301.695 135.559 301.896 136.178C302.098 136.796 302.238 137.496 302.316 138.277V139.176C302.245 139.951 302.105 140.647 301.896 141.266C301.695 141.884 301.418 142.411 301.066 142.848C300.721 143.284 300.298 143.619 299.797 143.854C299.296 144.081 298.71 144.195 298.039 144.195C297.408 144.195 296.835 144.062 296.32 143.795C295.812 143.528 295.376 143.154 295.012 142.672C294.647 142.19 294.367 141.624 294.172 140.973C293.983 140.315 293.889 139.602 293.889 138.834ZM295.695 138.629V138.834C295.695 139.361 295.747 139.856 295.852 140.318C295.962 140.781 296.128 141.188 296.35 141.539C296.577 141.891 296.867 142.167 297.219 142.369C297.57 142.564 297.99 142.662 298.479 142.662C299.077 142.662 299.572 142.535 299.963 142.281C300.354 142.027 300.663 141.692 300.891 141.275C301.125 140.859 301.307 140.406 301.438 139.918V137.564C301.366 137.206 301.255 136.861 301.105 136.529C300.962 136.191 300.773 135.891 300.539 135.631C300.311 135.364 300.028 135.152 299.689 134.996C299.351 134.84 298.954 134.762 298.498 134.762C298.003 134.762 297.577 134.866 297.219 135.074C296.867 135.276 296.577 135.556 296.35 135.914C296.128 136.266 295.962 136.676 295.852 137.145C295.747 137.607 295.695 138.102 295.695 138.629ZM307.355 129V144H305.549V129H307.355ZM306.926 138.316L306.174 138.287C306.18 137.564 306.288 136.897 306.496 136.285C306.704 135.667 306.997 135.13 307.375 134.674C307.753 134.218 308.202 133.867 308.723 133.619C309.25 133.365 309.833 133.238 310.471 133.238C310.992 133.238 311.46 133.31 311.877 133.453C312.294 133.59 312.648 133.811 312.941 134.117C313.241 134.423 313.469 134.82 313.625 135.309C313.781 135.79 313.859 136.38 313.859 137.076V144H312.043V137.057C312.043 136.503 311.962 136.061 311.799 135.729C311.636 135.39 311.398 135.146 311.086 134.996C310.773 134.84 310.389 134.762 309.934 134.762C309.484 134.762 309.074 134.856 308.703 135.045C308.339 135.234 308.023 135.494 307.756 135.826C307.495 136.158 307.29 136.539 307.141 136.969C306.997 137.392 306.926 137.841 306.926 138.316ZM320.988 133.434V134.82H315.275V133.434H320.988ZM317.209 130.865H319.016V141.383C319.016 141.741 319.071 142.011 319.182 142.193C319.292 142.376 319.436 142.496 319.611 142.555C319.787 142.613 319.976 142.643 320.178 142.643C320.327 142.643 320.484 142.63 320.646 142.604C320.816 142.571 320.943 142.545 321.027 142.525L321.037 144C320.894 144.046 320.705 144.088 320.471 144.127C320.243 144.173 319.966 144.195 319.641 144.195C319.198 144.195 318.791 144.107 318.42 143.932C318.049 143.756 317.753 143.463 317.531 143.053C317.316 142.636 317.209 142.076 317.209 141.373V130.865ZM324.748 141.852V143.307C324.748 143.899 324.598 144.524 324.299 145.182C323.999 145.846 323.579 146.399 323.039 146.842L322.014 146.129C322.222 145.842 322.398 145.549 322.541 145.25C322.684 144.957 322.792 144.651 322.863 144.332C322.941 144.02 322.98 143.688 322.98 143.336V141.852H324.748ZM336.398 144.195C335.663 144.195 334.995 144.072 334.396 143.824C333.804 143.57 333.293 143.215 332.863 142.76C332.44 142.304 332.115 141.764 331.887 141.139C331.659 140.514 331.545 139.83 331.545 139.088V138.678C331.545 137.818 331.672 137.053 331.926 136.383C332.18 135.706 332.525 135.133 332.961 134.664C333.397 134.195 333.892 133.84 334.445 133.6C334.999 133.359 335.572 133.238 336.164 133.238C336.919 133.238 337.57 133.368 338.117 133.629C338.671 133.889 339.123 134.254 339.475 134.723C339.826 135.185 340.087 135.732 340.256 136.363C340.425 136.988 340.51 137.672 340.51 138.414V139.225H332.619V137.75H338.703V137.613C338.677 137.145 338.579 136.689 338.41 136.246C338.247 135.803 337.987 135.439 337.629 135.152C337.271 134.866 336.783 134.723 336.164 134.723C335.754 134.723 335.376 134.811 335.031 134.986C334.686 135.156 334.39 135.41 334.143 135.748C333.895 136.087 333.703 136.5 333.566 136.988C333.43 137.477 333.361 138.04 333.361 138.678V139.088C333.361 139.589 333.43 140.061 333.566 140.504C333.71 140.94 333.915 141.324 334.182 141.656C334.455 141.988 334.784 142.249 335.168 142.438C335.559 142.626 336.001 142.721 336.496 142.721C337.134 142.721 337.674 142.59 338.117 142.33C338.56 142.07 338.947 141.721 339.279 141.285L340.373 142.154C340.145 142.499 339.855 142.828 339.504 143.141C339.152 143.453 338.719 143.707 338.205 143.902C337.697 144.098 337.095 144.195 336.398 144.195ZM344.426 135.689V144H342.619V133.434H344.328L344.426 135.689ZM343.996 138.316L343.244 138.287C343.251 137.564 343.358 136.897 343.566 136.285C343.775 135.667 344.068 135.13 344.445 134.674C344.823 134.218 345.272 133.867 345.793 133.619C346.32 133.365 346.903 133.238 347.541 133.238C348.062 133.238 348.531 133.31 348.947 133.453C349.364 133.59 349.719 133.811 350.012 134.117C350.311 134.423 350.539 134.82 350.695 135.309C350.852 135.79 350.93 136.38 350.93 137.076V144H349.113V137.057C349.113 136.503 349.032 136.061 348.869 135.729C348.706 135.39 348.469 135.146 348.156 134.996C347.844 134.84 347.46 134.762 347.004 134.762C346.555 134.762 346.145 134.856 345.773 135.045C345.409 135.234 345.093 135.494 344.826 135.826C344.566 136.158 344.361 136.539 344.211 136.969C344.068 137.392 343.996 137.841 343.996 138.316ZM356.887 142.369L359.777 133.434H361.623L357.824 144H356.613L356.887 142.369ZM354.475 133.434L357.453 142.418L357.658 144H356.447L352.619 133.434H354.475ZM365.324 133.434V144H363.508V133.434H365.324ZM363.371 130.631C363.371 130.338 363.459 130.09 363.635 129.889C363.817 129.687 364.084 129.586 364.436 129.586C364.781 129.586 365.044 129.687 365.227 129.889C365.415 130.09 365.51 130.338 365.51 130.631C365.51 130.911 365.415 131.152 365.227 131.354C365.044 131.549 364.781 131.646 364.436 131.646C364.084 131.646 363.817 131.549 363.635 131.354C363.459 131.152 363.371 130.911 363.371 130.631ZM370.031 135.094V144H368.225V133.434H369.982L370.031 135.094ZM373.332 133.375L373.322 135.055C373.173 135.022 373.029 135.003 372.893 134.996C372.762 134.983 372.613 134.977 372.443 134.977C372.027 134.977 371.659 135.042 371.34 135.172C371.021 135.302 370.751 135.484 370.529 135.719C370.308 135.953 370.132 136.233 370.002 136.559C369.878 136.878 369.797 137.229 369.758 137.613L369.25 137.906C369.25 137.268 369.312 136.669 369.436 136.109C369.566 135.549 369.764 135.055 370.031 134.625C370.298 134.189 370.637 133.85 371.047 133.609C371.464 133.362 371.958 133.238 372.531 133.238C372.661 133.238 372.811 133.255 372.98 133.287C373.15 133.313 373.267 133.342 373.332 133.375ZM374.328 138.834V138.609C374.328 137.848 374.439 137.141 374.66 136.49C374.882 135.833 375.201 135.263 375.617 134.781C376.034 134.293 376.538 133.915 377.131 133.648C377.723 133.375 378.387 133.238 379.123 133.238C379.865 133.238 380.533 133.375 381.125 133.648C381.724 133.915 382.232 134.293 382.648 134.781C383.072 135.263 383.394 135.833 383.615 136.49C383.837 137.141 383.947 137.848 383.947 138.609V138.834C383.947 139.596 383.837 140.302 383.615 140.953C383.394 141.604 383.072 142.174 382.648 142.662C382.232 143.144 381.727 143.521 381.135 143.795C380.549 144.062 379.885 144.195 379.143 144.195C378.4 144.195 377.733 144.062 377.141 143.795C376.548 143.521 376.04 143.144 375.617 142.662C375.201 142.174 374.882 141.604 374.66 140.953C374.439 140.302 374.328 139.596 374.328 138.834ZM376.135 138.609V138.834C376.135 139.361 376.197 139.859 376.32 140.328C376.444 140.79 376.63 141.201 376.877 141.559C377.131 141.917 377.447 142.2 377.824 142.408C378.202 142.61 378.641 142.711 379.143 142.711C379.637 142.711 380.07 142.61 380.441 142.408C380.819 142.2 381.132 141.917 381.379 141.559C381.626 141.201 381.812 140.79 381.936 140.328C382.066 139.859 382.131 139.361 382.131 138.834V138.609C382.131 138.089 382.066 137.597 381.936 137.135C381.812 136.666 381.623 136.253 381.369 135.895C381.122 135.53 380.809 135.243 380.432 135.035C380.061 134.827 379.624 134.723 379.123 134.723C378.628 134.723 378.192 134.827 377.814 135.035C377.443 135.243 377.131 135.53 376.877 135.895C376.63 136.253 376.444 136.666 376.32 137.135C376.197 137.597 376.135 138.089 376.135 138.609ZM388.02 135.689V144H386.213V133.434H387.922L388.02 135.689ZM387.59 138.316L386.838 138.287C386.844 137.564 386.952 136.897 387.16 136.285C387.368 135.667 387.661 135.13 388.039 134.674C388.417 134.218 388.866 133.867 389.387 133.619C389.914 133.365 390.497 133.238 391.135 133.238C391.656 133.238 392.124 133.31 392.541 133.453C392.958 133.59 393.312 133.811 393.605 134.117C393.905 134.423 394.133 134.82 394.289 135.309C394.445 135.79 394.523 136.38 394.523 137.076V144H392.707V137.057C392.707 136.503 392.626 136.061 392.463 135.729C392.3 135.39 392.062 135.146 391.75 134.996C391.438 134.84 391.053 134.762 390.598 134.762C390.148 134.762 389.738 134.856 389.367 135.045C389.003 135.234 388.687 135.494 388.42 135.826C388.16 136.158 387.954 136.539 387.805 136.969C387.661 137.392 387.59 137.841 387.59 138.316ZM399.064 135.533V144H397.248V133.434H398.967L399.064 135.533ZM398.693 138.316L397.854 138.287C397.86 137.564 397.954 136.897 398.137 136.285C398.319 135.667 398.589 135.13 398.947 134.674C399.305 134.218 399.751 133.867 400.285 133.619C400.819 133.365 401.438 133.238 402.141 133.238C402.635 133.238 403.091 133.31 403.508 133.453C403.924 133.59 404.286 133.808 404.592 134.107C404.898 134.407 405.135 134.791 405.305 135.26C405.474 135.729 405.559 136.295 405.559 136.959V144H403.752V137.047C403.752 136.493 403.658 136.051 403.469 135.719C403.286 135.387 403.026 135.146 402.688 134.996C402.349 134.84 401.952 134.762 401.496 134.762C400.962 134.762 400.516 134.856 400.158 135.045C399.8 135.234 399.514 135.494 399.299 135.826C399.084 136.158 398.928 136.539 398.83 136.969C398.739 137.392 398.693 137.841 398.693 138.316ZM405.539 137.32L404.328 137.691C404.335 137.112 404.429 136.555 404.611 136.021C404.8 135.488 405.07 135.012 405.422 134.596C405.78 134.179 406.219 133.85 406.74 133.609C407.261 133.362 407.857 133.238 408.527 133.238C409.094 133.238 409.595 133.313 410.031 133.463C410.474 133.613 410.845 133.844 411.145 134.156C411.451 134.462 411.682 134.856 411.838 135.338C411.994 135.82 412.072 136.393 412.072 137.057V144H410.256V137.037C410.256 136.445 410.161 135.986 409.973 135.66C409.79 135.328 409.53 135.097 409.191 134.967C408.859 134.83 408.462 134.762 408 134.762C407.603 134.762 407.251 134.83 406.945 134.967C406.639 135.104 406.382 135.292 406.174 135.533C405.965 135.768 405.806 136.038 405.695 136.344C405.591 136.65 405.539 136.975 405.539 137.32ZM419.191 144.195C418.456 144.195 417.788 144.072 417.189 143.824C416.597 143.57 416.086 143.215 415.656 142.76C415.233 142.304 414.908 141.764 414.68 141.139C414.452 140.514 414.338 139.83 414.338 139.088V138.678C414.338 137.818 414.465 137.053 414.719 136.383C414.973 135.706 415.318 135.133 415.754 134.664C416.19 134.195 416.685 133.84 417.238 133.6C417.792 133.359 418.365 133.238 418.957 133.238C419.712 133.238 420.363 133.368 420.91 133.629C421.464 133.889 421.916 134.254 422.268 134.723C422.619 135.185 422.88 135.732 423.049 136.363C423.218 136.988 423.303 137.672 423.303 138.414V139.225H415.412V137.75H421.496V137.613C421.47 137.145 421.372 136.689 421.203 136.246C421.04 135.803 420.78 135.439 420.422 135.152C420.064 134.866 419.576 134.723 418.957 134.723C418.547 134.723 418.169 134.811 417.824 134.986C417.479 135.156 417.183 135.41 416.936 135.748C416.688 136.087 416.496 136.5 416.359 136.988C416.223 137.477 416.154 138.04 416.154 138.678V139.088C416.154 139.589 416.223 140.061 416.359 140.504C416.503 140.94 416.708 141.324 416.975 141.656C417.248 141.988 417.577 142.249 417.961 142.438C418.352 142.626 418.794 142.721 419.289 142.721C419.927 142.721 420.467 142.59 420.91 142.33C421.353 142.07 421.74 141.721 422.072 141.285L423.166 142.154C422.938 142.499 422.648 142.828 422.297 143.141C421.945 143.453 421.512 143.707 420.998 143.902C420.49 144.098 419.888 144.195 419.191 144.195ZM427.219 135.689V144H425.412V133.434H427.121L427.219 135.689ZM426.789 138.316L426.037 138.287C426.044 137.564 426.151 136.897 426.359 136.285C426.568 135.667 426.861 135.13 427.238 134.674C427.616 134.218 428.065 133.867 428.586 133.619C429.113 133.365 429.696 133.238 430.334 133.238C430.855 133.238 431.324 133.31 431.74 133.453C432.157 133.59 432.512 133.811 432.805 134.117C433.104 134.423 433.332 134.82 433.488 135.309C433.645 135.79 433.723 136.38 433.723 137.076V144H431.906V137.057C431.906 136.503 431.825 136.061 431.662 135.729C431.499 135.39 431.262 135.146 430.949 134.996C430.637 134.84 430.253 134.762 429.797 134.762C429.348 134.762 428.938 134.856 428.566 135.045C428.202 135.234 427.886 135.494 427.619 135.826C427.359 136.158 427.154 136.539 427.004 136.969C426.861 137.392 426.789 137.841 426.789 138.316ZM440.891 133.434V134.82H435.178V133.434H440.891ZM437.111 130.865H438.918V141.383C438.918 141.741 438.973 142.011 439.084 142.193C439.195 142.376 439.338 142.496 439.514 142.555C439.689 142.613 439.878 142.643 440.08 142.643C440.23 142.643 440.386 142.63 440.549 142.604C440.718 142.571 440.845 142.545 440.93 142.525L440.939 144C440.796 144.046 440.607 144.088 440.373 144.127C440.145 144.173 439.868 144.195 439.543 144.195C439.1 144.195 438.693 144.107 438.322 143.932C437.951 143.756 437.655 143.463 437.434 143.053C437.219 142.636 437.111 142.076 437.111 141.373V130.865ZM446.77 137.213V138.697H442.004V137.213H446.77ZM448.527 129H450.344V141.949L450.188 144H448.527V129ZM457.482 138.629V138.834C457.482 139.602 457.391 140.315 457.209 140.973C457.027 141.624 456.76 142.19 456.408 142.672C456.057 143.154 455.627 143.528 455.119 143.795C454.611 144.062 454.029 144.195 453.371 144.195C452.701 144.195 452.111 144.081 451.604 143.854C451.102 143.619 450.679 143.284 450.334 142.848C449.989 142.411 449.712 141.884 449.504 141.266C449.302 140.647 449.162 139.951 449.084 139.176V138.277C449.162 137.496 449.302 136.796 449.504 136.178C449.712 135.559 449.989 135.032 450.334 134.596C450.679 134.153 451.102 133.818 451.604 133.59C452.105 133.355 452.688 133.238 453.352 133.238C454.016 133.238 454.605 133.368 455.119 133.629C455.633 133.883 456.063 134.247 456.408 134.723C456.76 135.198 457.027 135.768 457.209 136.432C457.391 137.089 457.482 137.822 457.482 138.629ZM455.666 138.834V138.629C455.666 138.102 455.617 137.607 455.52 137.145C455.422 136.676 455.266 136.266 455.051 135.914C454.836 135.556 454.553 135.276 454.201 135.074C453.85 134.866 453.417 134.762 452.902 134.762C452.447 134.762 452.049 134.84 451.711 134.996C451.379 135.152 451.096 135.364 450.861 135.631C450.627 135.891 450.435 136.191 450.285 136.529C450.142 136.861 450.035 137.206 449.963 137.564V139.918C450.067 140.374 450.236 140.813 450.471 141.236C450.712 141.653 451.031 141.995 451.428 142.262C451.831 142.529 452.329 142.662 452.922 142.662C453.41 142.662 453.827 142.564 454.172 142.369C454.523 142.167 454.807 141.891 455.021 141.539C455.243 141.188 455.406 140.781 455.51 140.318C455.614 139.856 455.666 139.361 455.666 138.834ZM465.998 142.193V136.754C465.998 136.337 465.913 135.976 465.744 135.67C465.581 135.357 465.334 135.117 465.002 134.947C464.67 134.778 464.26 134.693 463.771 134.693C463.316 134.693 462.915 134.771 462.57 134.928C462.232 135.084 461.965 135.289 461.77 135.543C461.581 135.797 461.486 136.07 461.486 136.363H459.68C459.68 135.986 459.777 135.611 459.973 135.24C460.168 134.869 460.448 134.534 460.812 134.234C461.184 133.928 461.626 133.688 462.141 133.512C462.661 133.329 463.241 133.238 463.879 133.238C464.647 133.238 465.324 133.368 465.91 133.629C466.503 133.889 466.965 134.283 467.297 134.811C467.635 135.331 467.805 135.986 467.805 136.773V141.695C467.805 142.047 467.834 142.421 467.893 142.818C467.958 143.215 468.052 143.557 468.176 143.844V144H466.291C466.2 143.792 466.128 143.515 466.076 143.17C466.024 142.818 465.998 142.493 465.998 142.193ZM466.311 137.594L466.33 138.863H464.504C463.99 138.863 463.531 138.906 463.127 138.99C462.723 139.068 462.385 139.189 462.111 139.352C461.838 139.514 461.63 139.719 461.486 139.967C461.343 140.208 461.271 140.491 461.271 140.816C461.271 141.148 461.346 141.451 461.496 141.725C461.646 141.998 461.87 142.216 462.17 142.379C462.476 142.535 462.85 142.613 463.293 142.613C463.846 142.613 464.335 142.496 464.758 142.262C465.181 142.027 465.516 141.741 465.764 141.402C466.018 141.064 466.154 140.735 466.174 140.416L466.945 141.285C466.9 141.559 466.776 141.861 466.574 142.193C466.372 142.525 466.102 142.844 465.764 143.15C465.432 143.45 465.035 143.701 464.572 143.902C464.117 144.098 463.602 144.195 463.029 144.195C462.313 144.195 461.685 144.055 461.145 143.775C460.611 143.495 460.194 143.121 459.895 142.652C459.602 142.177 459.455 141.646 459.455 141.061C459.455 140.494 459.566 139.996 459.787 139.566C460.008 139.13 460.327 138.769 460.744 138.482C461.161 138.189 461.662 137.968 462.248 137.818C462.834 137.669 463.488 137.594 464.211 137.594H466.311ZM476.799 141.197C476.799 140.937 476.74 140.696 476.623 140.475C476.512 140.247 476.281 140.042 475.93 139.859C475.585 139.671 475.064 139.508 474.367 139.371C473.781 139.247 473.251 139.101 472.775 138.932C472.307 138.762 471.906 138.557 471.574 138.316C471.249 138.076 470.998 137.792 470.822 137.467C470.646 137.141 470.559 136.76 470.559 136.324C470.559 135.908 470.65 135.514 470.832 135.143C471.021 134.771 471.285 134.443 471.623 134.156C471.968 133.87 472.382 133.645 472.863 133.482C473.345 133.32 473.882 133.238 474.475 133.238C475.321 133.238 476.044 133.388 476.643 133.688C477.242 133.987 477.701 134.387 478.02 134.889C478.339 135.383 478.498 135.934 478.498 136.539H476.691C476.691 136.246 476.604 135.963 476.428 135.689C476.258 135.41 476.008 135.178 475.676 134.996C475.35 134.814 474.95 134.723 474.475 134.723C473.973 134.723 473.566 134.801 473.254 134.957C472.948 135.107 472.723 135.299 472.58 135.533C472.443 135.768 472.375 136.015 472.375 136.275C472.375 136.471 472.408 136.646 472.473 136.803C472.544 136.952 472.668 137.092 472.844 137.223C473.02 137.346 473.267 137.464 473.586 137.574C473.905 137.685 474.312 137.796 474.807 137.906C475.673 138.102 476.385 138.336 476.945 138.609C477.505 138.883 477.922 139.218 478.195 139.615C478.469 140.012 478.605 140.494 478.605 141.061C478.605 141.523 478.508 141.946 478.312 142.33C478.124 142.714 477.847 143.046 477.482 143.326C477.124 143.6 476.695 143.814 476.193 143.971C475.699 144.12 475.142 144.195 474.523 144.195C473.592 144.195 472.805 144.029 472.16 143.697C471.516 143.365 471.027 142.936 470.695 142.408C470.363 141.881 470.197 141.324 470.197 140.738H472.014C472.04 141.233 472.183 141.627 472.443 141.92C472.704 142.206 473.023 142.411 473.4 142.535C473.778 142.652 474.152 142.711 474.523 142.711C475.018 142.711 475.432 142.646 475.764 142.516C476.102 142.385 476.359 142.206 476.535 141.979C476.711 141.751 476.799 141.49 476.799 141.197ZM485.363 144.195C484.628 144.195 483.96 144.072 483.361 143.824C482.769 143.57 482.258 143.215 481.828 142.76C481.405 142.304 481.079 141.764 480.852 141.139C480.624 140.514 480.51 139.83 480.51 139.088V138.678C480.51 137.818 480.637 137.053 480.891 136.383C481.145 135.706 481.49 135.133 481.926 134.664C482.362 134.195 482.857 133.84 483.41 133.6C483.964 133.359 484.536 133.238 485.129 133.238C485.884 133.238 486.535 133.368 487.082 133.629C487.635 133.889 488.088 134.254 488.439 134.723C488.791 135.185 489.051 135.732 489.221 136.363C489.39 136.988 489.475 137.672 489.475 138.414V139.225H481.584V137.75H487.668V137.613C487.642 137.145 487.544 136.689 487.375 136.246C487.212 135.803 486.952 135.439 486.594 135.152C486.236 134.866 485.747 134.723 485.129 134.723C484.719 134.723 484.341 134.811 483.996 134.986C483.651 135.156 483.355 135.41 483.107 135.748C482.86 136.087 482.668 136.5 482.531 136.988C482.395 137.477 482.326 138.04 482.326 138.678V139.088C482.326 139.589 482.395 140.061 482.531 140.504C482.674 140.94 482.88 141.324 483.146 141.656C483.42 141.988 483.749 142.249 484.133 142.438C484.523 142.626 484.966 142.721 485.461 142.721C486.099 142.721 486.639 142.59 487.082 142.33C487.525 142.07 487.912 141.721 488.244 141.285L489.338 142.154C489.11 142.499 488.82 142.828 488.469 143.141C488.117 143.453 487.684 143.707 487.17 143.902C486.662 144.098 486.06 144.195 485.363 144.195ZM498.244 141.949V129H500.061V144H498.4L498.244 141.949ZM491.135 138.834V138.629C491.135 137.822 491.232 137.089 491.428 136.432C491.63 135.768 491.913 135.198 492.277 134.723C492.648 134.247 493.088 133.883 493.596 133.629C494.11 133.368 494.683 133.238 495.314 133.238C495.979 133.238 496.558 133.355 497.053 133.59C497.554 133.818 497.977 134.153 498.322 134.596C498.674 135.032 498.951 135.559 499.152 136.178C499.354 136.796 499.494 137.496 499.572 138.277V139.176C499.501 139.951 499.361 140.647 499.152 141.266C498.951 141.884 498.674 142.411 498.322 142.848C497.977 143.284 497.554 143.619 497.053 143.854C496.551 144.081 495.965 144.195 495.295 144.195C494.676 144.195 494.11 144.062 493.596 143.795C493.088 143.528 492.648 143.154 492.277 142.672C491.913 142.19 491.63 141.624 491.428 140.973C491.232 140.315 491.135 139.602 491.135 138.834ZM492.951 138.629V138.834C492.951 139.361 493.003 139.856 493.107 140.318C493.218 140.781 493.387 141.188 493.615 141.539C493.843 141.891 494.133 142.167 494.484 142.369C494.836 142.564 495.256 142.662 495.744 142.662C496.343 142.662 496.835 142.535 497.219 142.281C497.609 142.027 497.922 141.692 498.156 141.275C498.391 140.859 498.573 140.406 498.703 139.918V137.564C498.625 137.206 498.511 136.861 498.361 136.529C498.218 136.191 498.029 135.891 497.795 135.631C497.567 135.364 497.284 135.152 496.945 134.996C496.613 134.84 496.219 134.762 495.764 134.762C495.269 134.762 494.842 134.866 494.484 135.074C494.133 135.276 493.843 135.556 493.615 135.914C493.387 136.266 493.218 136.676 493.107 137.145C493.003 137.607 492.951 138.102 492.951 138.629ZM510.529 144H508.723V132.32C508.723 131.559 508.859 130.917 509.133 130.396C509.413 129.869 509.813 129.472 510.334 129.205C510.855 128.932 511.473 128.795 512.189 128.795C512.398 128.795 512.606 128.808 512.814 128.834C513.029 128.86 513.238 128.899 513.439 128.951L513.342 130.426C513.205 130.393 513.049 130.37 512.873 130.357C512.704 130.344 512.535 130.338 512.365 130.338C511.981 130.338 511.649 130.416 511.369 130.572C511.096 130.722 510.887 130.943 510.744 131.236C510.601 131.529 510.529 131.891 510.529 132.32V144ZM512.775 133.434V134.82H507.053V133.434H512.775ZM518.938 144.195C518.202 144.195 517.535 144.072 516.936 143.824C516.343 143.57 515.832 143.215 515.402 142.76C514.979 142.304 514.654 141.764 514.426 141.139C514.198 140.514 514.084 139.83 514.084 139.088V138.678C514.084 137.818 514.211 137.053 514.465 136.383C514.719 135.706 515.064 135.133 515.5 134.664C515.936 134.195 516.431 133.84 516.984 133.6C517.538 133.359 518.111 133.238 518.703 133.238C519.458 133.238 520.109 133.368 520.656 133.629C521.21 133.889 521.662 134.254 522.014 134.723C522.365 135.185 522.626 135.732 522.795 136.363C522.964 136.988 523.049 137.672 523.049 138.414V139.225H515.158V137.75H521.242V137.613C521.216 137.145 521.118 136.689 520.949 136.246C520.786 135.803 520.526 135.439 520.168 135.152C519.81 134.866 519.322 134.723 518.703 134.723C518.293 134.723 517.915 134.811 517.57 134.986C517.225 135.156 516.929 135.41 516.682 135.748C516.434 136.087 516.242 136.5 516.105 136.988C515.969 137.477 515.9 138.04 515.9 138.678V139.088C515.9 139.589 515.969 140.061 516.105 140.504C516.249 140.94 516.454 141.324 516.721 141.656C516.994 141.988 517.323 142.249 517.707 142.438C518.098 142.626 518.54 142.721 519.035 142.721C519.673 142.721 520.214 142.59 520.656 142.33C521.099 142.07 521.486 141.721 521.818 141.285L522.912 142.154C522.684 142.499 522.395 142.828 522.043 143.141C521.691 143.453 521.258 143.707 520.744 143.902C520.236 144.098 519.634 144.195 518.938 144.195ZM531.389 142.193V136.754C531.389 136.337 531.304 135.976 531.135 135.67C530.972 135.357 530.725 135.117 530.393 134.947C530.061 134.778 529.65 134.693 529.162 134.693C528.706 134.693 528.306 134.771 527.961 134.928C527.622 135.084 527.355 135.289 527.16 135.543C526.971 135.797 526.877 136.07 526.877 136.363H525.07C525.07 135.986 525.168 135.611 525.363 135.24C525.559 134.869 525.839 134.534 526.203 134.234C526.574 133.928 527.017 133.688 527.531 133.512C528.052 133.329 528.632 133.238 529.27 133.238C530.038 133.238 530.715 133.368 531.301 133.629C531.893 133.889 532.355 134.283 532.688 134.811C533.026 135.331 533.195 135.986 533.195 136.773V141.695C533.195 142.047 533.225 142.421 533.283 142.818C533.348 143.215 533.443 143.557 533.566 143.844V144H531.682C531.59 143.792 531.519 143.515 531.467 143.17C531.415 142.818 531.389 142.493 531.389 142.193ZM531.701 137.594L531.721 138.863H529.895C529.38 138.863 528.921 138.906 528.518 138.99C528.114 139.068 527.775 139.189 527.502 139.352C527.229 139.514 527.02 139.719 526.877 139.967C526.734 140.208 526.662 140.491 526.662 140.816C526.662 141.148 526.737 141.451 526.887 141.725C527.036 141.998 527.261 142.216 527.561 142.379C527.867 142.535 528.241 142.613 528.684 142.613C529.237 142.613 529.725 142.496 530.148 142.262C530.572 142.027 530.907 141.741 531.154 141.402C531.408 141.064 531.545 140.735 531.564 140.416L532.336 141.285C532.29 141.559 532.167 141.861 531.965 142.193C531.763 142.525 531.493 142.844 531.154 143.15C530.822 143.45 530.425 143.701 529.963 143.902C529.507 144.098 528.993 144.195 528.42 144.195C527.704 144.195 527.076 144.055 526.535 143.775C526.001 143.495 525.585 143.121 525.285 142.652C524.992 142.177 524.846 141.646 524.846 141.061C524.846 140.494 524.956 139.996 525.178 139.566C525.399 139.13 525.718 138.769 526.135 138.482C526.551 138.189 527.053 137.968 527.639 137.818C528.225 137.669 528.879 137.594 529.602 137.594H531.701ZM540.461 133.434V134.82H534.748V133.434H540.461ZM536.682 130.865H538.488V141.383C538.488 141.741 538.544 142.011 538.654 142.193C538.765 142.376 538.908 142.496 539.084 142.555C539.26 142.613 539.449 142.643 539.65 142.643C539.8 142.643 539.956 142.63 540.119 142.604C540.288 142.571 540.415 142.545 540.5 142.525L540.51 144C540.367 144.046 540.178 144.088 539.943 144.127C539.715 144.173 539.439 144.195 539.113 144.195C538.671 144.195 538.264 144.107 537.893 143.932C537.521 143.756 537.225 143.463 537.004 143.053C536.789 142.636 536.682 142.076 536.682 141.373V130.865ZM549.045 141.559V133.434H550.861V144H549.133L549.045 141.559ZM549.387 139.332L550.139 139.312C550.139 140.016 550.064 140.667 549.914 141.266C549.771 141.858 549.536 142.372 549.211 142.809C548.885 143.245 548.459 143.587 547.932 143.834C547.404 144.075 546.763 144.195 546.008 144.195C545.493 144.195 545.021 144.12 544.592 143.971C544.169 143.821 543.804 143.59 543.498 143.277C543.192 142.965 542.954 142.558 542.785 142.057C542.622 141.555 542.541 140.953 542.541 140.25V133.434H544.348V140.27C544.348 140.745 544.4 141.139 544.504 141.451C544.615 141.757 544.761 142.001 544.943 142.184C545.132 142.359 545.34 142.483 545.568 142.555C545.803 142.626 546.044 142.662 546.291 142.662C547.059 142.662 547.668 142.516 548.117 142.223C548.566 141.923 548.889 141.523 549.084 141.021C549.286 140.514 549.387 139.951 549.387 139.332ZM555.422 135.094V144H553.615V133.434H555.373L555.422 135.094ZM558.723 133.375L558.713 135.055C558.563 135.022 558.42 135.003 558.283 134.996C558.153 134.983 558.003 134.977 557.834 134.977C557.417 134.977 557.049 135.042 556.73 135.172C556.411 135.302 556.141 135.484 555.92 135.719C555.699 135.953 555.523 136.233 555.393 136.559C555.269 136.878 555.188 137.229 555.148 137.613L554.641 137.906C554.641 137.268 554.702 136.669 554.826 136.109C554.956 135.549 555.155 135.055 555.422 134.625C555.689 134.189 556.027 133.85 556.438 133.609C556.854 133.362 557.349 133.238 557.922 133.238C558.052 133.238 558.202 133.255 558.371 133.287C558.54 133.313 558.658 133.342 558.723 133.375ZM564.582 144.195C563.846 144.195 563.179 144.072 562.58 143.824C561.988 143.57 561.477 143.215 561.047 142.76C560.624 142.304 560.298 141.764 560.07 141.139C559.842 140.514 559.729 139.83 559.729 139.088V138.678C559.729 137.818 559.855 137.053 560.109 136.383C560.363 135.706 560.708 135.133 561.145 134.664C561.581 134.195 562.076 133.84 562.629 133.6C563.182 133.359 563.755 133.238 564.348 133.238C565.103 133.238 565.754 133.368 566.301 133.629C566.854 133.889 567.307 134.254 567.658 134.723C568.01 135.185 568.27 135.732 568.439 136.363C568.609 136.988 568.693 137.672 568.693 138.414V139.225H560.803V137.75H566.887V137.613C566.861 137.145 566.763 136.689 566.594 136.246C566.431 135.803 566.171 135.439 565.812 135.152C565.454 134.866 564.966 134.723 564.348 134.723C563.938 134.723 563.56 134.811 563.215 134.986C562.87 135.156 562.574 135.41 562.326 135.748C562.079 136.087 561.887 136.5 561.75 136.988C561.613 137.477 561.545 138.04 561.545 138.678V139.088C561.545 139.589 561.613 140.061 561.75 140.504C561.893 140.94 562.098 141.324 562.365 141.656C562.639 141.988 562.967 142.249 563.352 142.438C563.742 142.626 564.185 142.721 564.68 142.721C565.318 142.721 565.858 142.59 566.301 142.33C566.743 142.07 567.131 141.721 567.463 141.285L568.557 142.154C568.329 142.499 568.039 142.828 567.688 143.141C567.336 143.453 566.903 143.707 566.389 143.902C565.881 144.098 565.279 144.195 564.582 144.195ZM578.459 144H576.652V132.32C576.652 131.559 576.792 130.917 577.072 130.396C577.359 129.869 577.769 129.472 578.303 129.205C578.843 128.932 579.497 128.795 580.266 128.795C580.552 128.795 580.91 128.824 581.34 128.883C581.776 128.941 582.238 129.016 582.727 129.107C583.221 129.199 583.703 129.293 584.172 129.391L583.332 130.699C582.714 130.582 582.157 130.494 581.662 130.436C581.167 130.37 580.747 130.338 580.402 130.338C579.979 130.338 579.621 130.416 579.328 130.572C579.042 130.722 578.824 130.943 578.674 131.236C578.531 131.529 578.459 131.891 578.459 132.32V144ZM582.365 144V129.391H584.172V144H582.365ZM580.705 133.434V134.82H574.982V133.434H580.705ZM593.361 142.193V136.754C593.361 136.337 593.277 135.976 593.107 135.67C592.945 135.357 592.697 135.117 592.365 134.947C592.033 134.778 591.623 134.693 591.135 134.693C590.679 134.693 590.279 134.771 589.934 134.928C589.595 135.084 589.328 135.289 589.133 135.543C588.944 135.797 588.85 136.07 588.85 136.363H587.043C587.043 135.986 587.141 135.611 587.336 135.24C587.531 134.869 587.811 134.534 588.176 134.234C588.547 133.928 588.99 133.688 589.504 133.512C590.025 133.329 590.604 133.238 591.242 133.238C592.01 133.238 592.688 133.368 593.273 133.629C593.866 133.889 594.328 134.283 594.66 134.811C594.999 135.331 595.168 135.986 595.168 136.773V141.695C595.168 142.047 595.197 142.421 595.256 142.818C595.321 143.215 595.415 143.557 595.539 143.844V144H593.654C593.563 143.792 593.492 143.515 593.439 143.17C593.387 142.818 593.361 142.493 593.361 142.193ZM593.674 137.594L593.693 138.863H591.867C591.353 138.863 590.894 138.906 590.49 138.99C590.087 139.068 589.748 139.189 589.475 139.352C589.201 139.514 588.993 139.719 588.85 139.967C588.706 140.208 588.635 140.491 588.635 140.816C588.635 141.148 588.71 141.451 588.859 141.725C589.009 141.998 589.234 142.216 589.533 142.379C589.839 142.535 590.214 142.613 590.656 142.613C591.21 142.613 591.698 142.496 592.121 142.262C592.544 142.027 592.88 141.741 593.127 141.402C593.381 141.064 593.518 140.735 593.537 140.416L594.309 141.285C594.263 141.559 594.139 141.861 593.938 142.193C593.736 142.525 593.465 142.844 593.127 143.15C592.795 143.45 592.398 143.701 591.936 143.902C591.48 144.098 590.965 144.195 590.393 144.195C589.676 144.195 589.048 144.055 588.508 143.775C587.974 143.495 587.557 143.121 587.258 142.652C586.965 142.177 586.818 141.646 586.818 141.061C586.818 140.494 586.929 139.996 587.15 139.566C587.372 139.13 587.691 138.769 588.107 138.482C588.524 138.189 589.025 137.968 589.611 137.818C590.197 137.669 590.852 137.594 591.574 137.594H593.674ZM604.855 133.434H606.496V143.775C606.496 144.706 606.307 145.501 605.93 146.158C605.552 146.816 605.025 147.314 604.348 147.652C603.677 147.997 602.902 148.17 602.023 148.17C601.659 148.17 601.229 148.111 600.734 147.994C600.246 147.883 599.764 147.691 599.289 147.418C598.82 147.151 598.426 146.79 598.107 146.334L599.055 145.26C599.497 145.794 599.96 146.165 600.441 146.373C600.93 146.581 601.411 146.686 601.887 146.686C602.46 146.686 602.954 146.578 603.371 146.363C603.788 146.148 604.11 145.829 604.338 145.406C604.572 144.99 604.689 144.475 604.689 143.863V135.758L604.855 133.434ZM597.58 138.834V138.629C597.58 137.822 597.674 137.089 597.863 136.432C598.059 135.768 598.335 135.198 598.693 134.723C599.058 134.247 599.497 133.883 600.012 133.629C600.526 133.368 601.105 133.238 601.75 133.238C602.414 133.238 602.993 133.355 603.488 133.59C603.99 133.818 604.413 134.153 604.758 134.596C605.109 135.032 605.386 135.559 605.588 136.178C605.79 136.796 605.93 137.496 606.008 138.277V139.176C605.936 139.951 605.796 140.647 605.588 141.266C605.386 141.884 605.109 142.411 604.758 142.848C604.413 143.284 603.99 143.619 603.488 143.854C602.987 144.081 602.401 144.195 601.73 144.195C601.099 144.195 600.526 144.062 600.012 143.795C599.504 143.528 599.068 143.154 598.703 142.672C598.339 142.19 598.059 141.624 597.863 140.973C597.674 140.315 597.58 139.602 597.58 138.834ZM599.387 138.629V138.834C599.387 139.361 599.439 139.856 599.543 140.318C599.654 140.781 599.82 141.188 600.041 141.539C600.269 141.891 600.559 142.167 600.91 142.369C601.262 142.564 601.682 142.662 602.17 142.662C602.769 142.662 603.264 142.535 603.654 142.281C604.045 142.027 604.354 141.692 604.582 141.275C604.816 140.859 604.999 140.406 605.129 139.918V137.564C605.057 137.206 604.947 136.861 604.797 136.529C604.654 136.191 604.465 135.891 604.23 135.631C604.003 135.364 603.719 135.152 603.381 134.996C603.042 134.84 602.645 134.762 602.189 134.762C601.695 134.762 601.268 134.866 600.91 135.074C600.559 135.276 600.269 135.556 600.041 135.914C599.82 136.266 599.654 136.676 599.543 137.145C599.439 137.607 599.387 138.102 599.387 138.629ZM620.354 141.197C620.354 140.937 620.295 140.696 620.178 140.475C620.067 140.247 619.836 140.042 619.484 139.859C619.139 139.671 618.618 139.508 617.922 139.371C617.336 139.247 616.805 139.101 616.33 138.932C615.861 138.762 615.461 138.557 615.129 138.316C614.803 138.076 614.553 137.792 614.377 137.467C614.201 137.141 614.113 136.76 614.113 136.324C614.113 135.908 614.204 135.514 614.387 135.143C614.576 134.771 614.839 134.443 615.178 134.156C615.523 133.87 615.936 133.645 616.418 133.482C616.9 133.32 617.437 133.238 618.029 133.238C618.876 133.238 619.598 133.388 620.197 133.688C620.796 133.987 621.255 134.387 621.574 134.889C621.893 135.383 622.053 135.934 622.053 136.539H620.246C620.246 136.246 620.158 135.963 619.982 135.689C619.813 135.41 619.562 135.178 619.23 134.996C618.905 134.814 618.505 134.723 618.029 134.723C617.528 134.723 617.121 134.801 616.809 134.957C616.503 135.107 616.278 135.299 616.135 135.533C615.998 135.768 615.93 136.015 615.93 136.275C615.93 136.471 615.962 136.646 616.027 136.803C616.099 136.952 616.223 137.092 616.398 137.223C616.574 137.346 616.822 137.464 617.141 137.574C617.46 137.685 617.867 137.796 618.361 137.906C619.227 138.102 619.94 138.336 620.5 138.609C621.06 138.883 621.477 139.218 621.75 139.615C622.023 140.012 622.16 140.494 622.16 141.061C622.16 141.523 622.062 141.946 621.867 142.33C621.678 142.714 621.402 143.046 621.037 143.326C620.679 143.6 620.249 143.814 619.748 143.971C619.253 144.12 618.697 144.195 618.078 144.195C617.147 144.195 616.359 144.029 615.715 143.697C615.07 143.365 614.582 142.936 614.25 142.408C613.918 141.881 613.752 141.324 613.752 140.738H615.568C615.594 141.233 615.738 141.627 615.998 141.92C616.258 142.206 616.577 142.411 616.955 142.535C617.333 142.652 617.707 142.711 618.078 142.711C618.573 142.711 618.986 142.646 619.318 142.516C619.657 142.385 619.914 142.206 620.09 141.979C620.266 141.751 620.354 141.49 620.354 141.197ZM627.502 142.906L630.441 133.434H632.375L628.137 145.631C628.039 145.891 627.909 146.171 627.746 146.471C627.59 146.777 627.388 147.066 627.141 147.34C626.893 147.613 626.594 147.835 626.242 148.004C625.897 148.18 625.484 148.268 625.002 148.268C624.859 148.268 624.676 148.248 624.455 148.209C624.234 148.17 624.077 148.137 623.986 148.111L623.977 146.646C624.029 146.653 624.11 146.66 624.221 146.666C624.338 146.679 624.419 146.686 624.465 146.686C624.875 146.686 625.223 146.63 625.51 146.52C625.796 146.415 626.037 146.236 626.232 145.982C626.434 145.735 626.607 145.393 626.75 144.957L627.502 142.906ZM625.344 133.434L628.088 141.637L628.557 143.541L627.258 144.205L623.371 133.434H625.344ZM640.158 141.197C640.158 140.937 640.1 140.696 639.982 140.475C639.872 140.247 639.641 140.042 639.289 139.859C638.944 139.671 638.423 139.508 637.727 139.371C637.141 139.247 636.61 139.101 636.135 138.932C635.666 138.762 635.266 138.557 634.934 138.316C634.608 138.076 634.357 137.792 634.182 137.467C634.006 137.141 633.918 136.76 633.918 136.324C633.918 135.908 634.009 135.514 634.191 135.143C634.38 134.771 634.644 134.443 634.982 134.156C635.327 133.87 635.741 133.645 636.223 133.482C636.704 133.32 637.242 133.238 637.834 133.238C638.68 133.238 639.403 133.388 640.002 133.688C640.601 133.987 641.06 134.387 641.379 134.889C641.698 135.383 641.857 135.934 641.857 136.539H640.051C640.051 136.246 639.963 135.963 639.787 135.689C639.618 135.41 639.367 135.178 639.035 134.996C638.71 134.814 638.309 134.723 637.834 134.723C637.333 134.723 636.926 134.801 636.613 134.957C636.307 135.107 636.083 135.299 635.939 135.533C635.803 135.768 635.734 136.015 635.734 136.275C635.734 136.471 635.767 136.646 635.832 136.803C635.904 136.952 636.027 137.092 636.203 137.223C636.379 137.346 636.626 137.464 636.945 137.574C637.264 137.685 637.671 137.796 638.166 137.906C639.032 138.102 639.745 138.336 640.305 138.609C640.865 138.883 641.281 139.218 641.555 139.615C641.828 140.012 641.965 140.494 641.965 141.061C641.965 141.523 641.867 141.946 641.672 142.33C641.483 142.714 641.206 143.046 640.842 143.326C640.484 143.6 640.054 143.814 639.553 143.971C639.058 144.12 638.501 144.195 637.883 144.195C636.952 144.195 636.164 144.029 635.52 143.697C634.875 143.365 634.387 142.936 634.055 142.408C633.723 141.881 633.557 141.324 633.557 140.738H635.373C635.399 141.233 635.542 141.627 635.803 141.92C636.063 142.206 636.382 142.411 636.76 142.535C637.137 142.652 637.512 142.711 637.883 142.711C638.378 142.711 638.791 142.646 639.123 142.516C639.462 142.385 639.719 142.206 639.895 141.979C640.07 141.751 640.158 141.49 640.158 141.197ZM648.762 133.434V134.82H643.049V133.434H648.762ZM644.982 130.865H646.789V141.383C646.789 141.741 646.844 142.011 646.955 142.193C647.066 142.376 647.209 142.496 647.385 142.555C647.561 142.613 647.749 142.643 647.951 142.643C648.101 142.643 648.257 142.63 648.42 142.604C648.589 142.571 648.716 142.545 648.801 142.525L648.811 144C648.667 144.046 648.479 144.088 648.244 144.127C648.016 144.173 647.74 144.195 647.414 144.195C646.971 144.195 646.564 144.107 646.193 143.932C645.822 143.756 645.526 143.463 645.305 143.053C645.09 142.636 644.982 142.076 644.982 141.373V130.865ZM655.266 144.195C654.53 144.195 653.863 144.072 653.264 143.824C652.671 143.57 652.16 143.215 651.73 142.76C651.307 142.304 650.982 141.764 650.754 141.139C650.526 140.514 650.412 139.83 650.412 139.088V138.678C650.412 137.818 650.539 137.053 650.793 136.383C651.047 135.706 651.392 135.133 651.828 134.664C652.264 134.195 652.759 133.84 653.312 133.6C653.866 133.359 654.439 133.238 655.031 133.238C655.786 133.238 656.438 133.368 656.984 133.629C657.538 133.889 657.99 134.254 658.342 134.723C658.693 135.185 658.954 135.732 659.123 136.363C659.292 136.988 659.377 137.672 659.377 138.414V139.225H651.486V137.75H657.57V137.613C657.544 137.145 657.447 136.689 657.277 136.246C657.115 135.803 656.854 135.439 656.496 135.152C656.138 134.866 655.65 134.723 655.031 134.723C654.621 134.723 654.243 134.811 653.898 134.986C653.553 135.156 653.257 135.41 653.01 135.748C652.762 136.087 652.57 136.5 652.434 136.988C652.297 137.477 652.229 138.04 652.229 138.678V139.088C652.229 139.589 652.297 140.061 652.434 140.504C652.577 140.94 652.782 141.324 653.049 141.656C653.322 141.988 653.651 142.249 654.035 142.438C654.426 142.626 654.868 142.721 655.363 142.721C656.001 142.721 656.542 142.59 656.984 142.33C657.427 142.07 657.814 141.721 658.146 141.285L659.24 142.154C659.012 142.499 658.723 142.828 658.371 143.141C658.02 143.453 657.587 143.707 657.072 143.902C656.564 144.098 655.962 144.195 655.266 144.195ZM663.283 135.533V144H661.467V133.434H663.186L663.283 135.533ZM662.912 138.316L662.072 138.287C662.079 137.564 662.173 136.897 662.355 136.285C662.538 135.667 662.808 135.13 663.166 134.674C663.524 134.218 663.97 133.867 664.504 133.619C665.038 133.365 665.656 133.238 666.359 133.238C666.854 133.238 667.31 133.31 667.727 133.453C668.143 133.59 668.505 133.808 668.811 134.107C669.117 134.407 669.354 134.791 669.523 135.26C669.693 135.729 669.777 136.295 669.777 136.959V144H667.971V137.047C667.971 136.493 667.876 136.051 667.688 135.719C667.505 135.387 667.245 135.146 666.906 134.996C666.568 134.84 666.171 134.762 665.715 134.762C665.181 134.762 664.735 134.856 664.377 135.045C664.019 135.234 663.732 135.494 663.518 135.826C663.303 136.158 663.146 136.539 663.049 136.969C662.958 137.392 662.912 137.841 662.912 138.316ZM669.758 137.32L668.547 137.691C668.553 137.112 668.648 136.555 668.83 136.021C669.019 135.488 669.289 135.012 669.641 134.596C669.999 134.179 670.438 133.85 670.959 133.609C671.48 133.362 672.076 133.238 672.746 133.238C673.312 133.238 673.814 133.313 674.25 133.463C674.693 133.613 675.064 133.844 675.363 134.156C675.669 134.462 675.9 134.856 676.057 135.338C676.213 135.82 676.291 136.393 676.291 137.057V144H674.475V137.037C674.475 136.445 674.38 135.986 674.191 135.66C674.009 135.328 673.749 135.097 673.41 134.967C673.078 134.83 672.681 134.762 672.219 134.762C671.822 134.762 671.47 134.83 671.164 134.967C670.858 135.104 670.601 135.292 670.393 135.533C670.184 135.768 670.025 136.038 669.914 136.344C669.81 136.65 669.758 136.975 669.758 137.32Z" fill="white"/>
</g>
<defs>
<filter id="filter0_f_473_137" x="-216.912" y="-136.91" width="1316.82" height="471.82" filterUnits="userSpaceOnUse" color-interpolation-filters="sRGB">
<feFlood flood-opacity="0" result="BackgroundImageFix"/>
<feBlend mode="normal" in="SourceGraphic" in2="BackgroundImageFix" result="shape"/>
<feGaussianBlur stdDeviation="67.955" result="effect1_foregroundBlur_473_137"/>
</filter>
<linearGradient id="paint0_linear_473_137" x1="441.998" y1="-95.4995" x2="441.998" y2="99.0005" gradientUnits="userSpaceOnUse">
<stop stop-color="#020420"/>
<stop offset="0.4375" stop-color="#00DC82"/>
<stop offset="1" stop-color="#00DC82" stop-opacity="0"/>
</linearGradient>
<clipPath id="clip0_473_137">
<rect width="896" height="230" fill="white"/>
</clipPath>
</defs>
</svg>
