<svg width="896" height="230" viewBox="0 0 896 230" fill="none" xmlns="http://www.w3.org/2000/svg">
<g clip-path="url(#clip0_473_137)">
<mask id="mask0_473_137" style="mask-type:luminance" maskUnits="userSpaceOnUse" x="0" y="0" width="896" height="230">
<path d="M0 0H896V230H0V0Z" fill="white"/>
</mask>
<g mask="url(#mask0_473_137)">
<path d="M0 0H896V230H0V0Z" fill="#020420"/>
<mask id="mask1_473_137" style="mask-type:luminance" maskUnits="userSpaceOnUse" x="-82" y="-211" width="1047" height="656">
<path d="M-81.0598 -210.34H964V445H-81.0598V-210.34Z" fill="white"/>
</mask>
<g mask="url(#mask1_473_137)">
<g opacity="0.5" filter="url(#filter0_f_473_137)">
<path d="M-81 -1H964L946 33.5L333.5 119L-81 199V-1Z" fill="url(#paint0_linear_473_137)"/>
</g>
</g>
</g>
<path d="M298.719 87.25V110H294.031V87.25H298.719ZM307.781 96.9688V100.625H297.438V96.9688H307.781ZM308.875 87.25V90.9219H297.438V87.25H308.875ZM318.75 110.312C317.438 110.312 316.26 110.104 315.219 109.688C314.177 109.26 313.292 108.672 312.562 107.922C311.844 107.172 311.292 106.302 310.906 105.312C310.521 104.312 310.328 103.25 310.328 102.125V101.5C310.328 100.219 310.51 99.0469 310.875 97.9844C311.24 96.9219 311.76 96 312.438 95.2188C313.125 94.4375 313.958 93.8385 314.938 93.4219C315.917 92.9948 317.021 92.7812 318.25 92.7812C319.448 92.7812 320.51 92.9792 321.438 93.375C322.365 93.7708 323.141 94.3333 323.766 95.0625C324.401 95.7917 324.88 96.6667 325.203 97.6875C325.526 98.6979 325.688 99.8229 325.688 101.062V102.938H312.25V99.9375H321.266V99.5938C321.266 98.9688 321.151 98.4115 320.922 97.9219C320.703 97.4219 320.37 97.026 319.922 96.7344C319.474 96.4427 318.901 96.2969 318.203 96.2969C317.609 96.2969 317.099 96.4271 316.672 96.6875C316.245 96.9479 315.896 97.3125 315.625 97.7812C315.365 98.25 315.167 98.8021 315.031 99.4375C314.906 100.062 314.844 100.75 314.844 101.5V102.125C314.844 102.802 314.938 103.427 315.125 104C315.323 104.573 315.599 105.068 315.953 105.484C316.318 105.901 316.755 106.224 317.266 106.453C317.786 106.682 318.375 106.797 319.031 106.797C319.844 106.797 320.599 106.641 321.297 106.328C322.005 106.005 322.615 105.521 323.125 104.875L325.312 107.25C324.958 107.76 324.474 108.25 323.859 108.719C323.255 109.188 322.526 109.573 321.672 109.875C320.818 110.167 319.844 110.312 318.75 110.312ZM337.375 106.188V98.6562C337.375 98.1146 337.286 97.651 337.109 97.2656C336.932 96.8698 336.656 96.5625 336.281 96.3438C335.917 96.125 335.443 96.0156 334.859 96.0156C334.359 96.0156 333.927 96.1042 333.562 96.2812C333.198 96.4479 332.917 96.6927 332.719 97.0156C332.521 97.3281 332.422 97.6979 332.422 98.125H327.922C327.922 97.4062 328.089 96.724 328.422 96.0781C328.755 95.4323 329.24 94.8646 329.875 94.375C330.51 93.875 331.266 93.4844 332.141 93.2031C333.026 92.9219 334.016 92.7812 335.109 92.7812C336.422 92.7812 337.589 93 338.609 93.4375C339.63 93.875 340.432 94.5312 341.016 95.4062C341.609 96.2812 341.906 97.375 341.906 98.6875V105.922C341.906 106.849 341.964 107.609 342.078 108.203C342.193 108.786 342.359 109.297 342.578 109.734V110H338.031C337.812 109.542 337.646 108.969 337.531 108.281C337.427 107.583 337.375 106.885 337.375 106.188ZM337.969 99.7031L338 102.25H335.484C334.891 102.25 334.375 102.318 333.938 102.453C333.5 102.589 333.141 102.781 332.859 103.031C332.578 103.271 332.37 103.552 332.234 103.875C332.109 104.198 332.047 104.552 332.047 104.938C332.047 105.323 332.135 105.672 332.312 105.984C332.49 106.286 332.745 106.526 333.078 106.703C333.411 106.87 333.802 106.953 334.25 106.953C334.927 106.953 335.516 106.818 336.016 106.547C336.516 106.276 336.901 105.943 337.172 105.547C337.453 105.151 337.599 104.776 337.609 104.422L338.797 106.328C338.63 106.755 338.401 107.198 338.109 107.656C337.828 108.115 337.469 108.547 337.031 108.953C336.594 109.349 336.068 109.677 335.453 109.938C334.839 110.188 334.109 110.312 333.266 110.312C332.193 110.312 331.219 110.099 330.344 109.672C329.479 109.234 328.792 108.635 328.281 107.875C327.781 107.104 327.531 106.229 327.531 105.25C327.531 104.365 327.698 103.578 328.031 102.891C328.365 102.203 328.854 101.625 329.5 101.156C330.156 100.677 330.974 100.318 331.953 100.078C332.932 99.8281 334.068 99.7031 335.359 99.7031H337.969ZM353.656 93.0938V96.2812H343.812V93.0938H353.656ZM346.25 88.9219H350.75V104.906C350.75 105.396 350.812 105.771 350.938 106.031C351.073 106.292 351.271 106.474 351.531 106.578C351.792 106.672 352.12 106.719 352.516 106.719C352.797 106.719 353.047 106.708 353.266 106.688C353.495 106.656 353.688 106.625 353.844 106.594L353.859 109.906C353.474 110.031 353.057 110.13 352.609 110.203C352.161 110.276 351.667 110.312 351.125 110.312C350.135 110.312 349.271 110.151 348.531 109.828C347.802 109.495 347.24 108.964 346.844 108.234C346.448 107.505 346.25 106.547 346.25 105.359V88.9219ZM366.219 105.953V93.0938H370.719V110H366.484L366.219 105.953ZM366.719 102.484L368.047 102.453C368.047 103.578 367.917 104.625 367.656 105.594C367.396 106.552 367.005 107.385 366.484 108.094C365.964 108.792 365.307 109.339 364.516 109.734C363.724 110.12 362.792 110.312 361.719 110.312C360.896 110.312 360.135 110.198 359.438 109.969C358.75 109.729 358.156 109.359 357.656 108.859C357.167 108.349 356.781 107.698 356.5 106.906C356.229 106.104 356.094 105.141 356.094 104.016V93.0938H360.594V104.047C360.594 104.547 360.651 104.969 360.766 105.312C360.891 105.656 361.062 105.938 361.281 106.156C361.5 106.375 361.755 106.531 362.047 106.625C362.349 106.719 362.682 106.766 363.047 106.766C363.974 106.766 364.703 106.578 365.234 106.203C365.776 105.828 366.156 105.318 366.375 104.672C366.604 104.016 366.719 103.286 366.719 102.484ZM378.656 96.7812V110H374.156V93.0938H378.391L378.656 96.7812ZM383.75 92.9844L383.672 97.1562C383.453 97.125 383.188 97.099 382.875 97.0781C382.573 97.0469 382.297 97.0312 382.047 97.0312C381.411 97.0312 380.859 97.1146 380.391 97.2812C379.932 97.4375 379.547 97.6719 379.234 97.9844C378.932 98.2969 378.703 98.6771 378.547 99.125C378.401 99.5729 378.318 100.083 378.297 100.656L377.391 100.375C377.391 99.2812 377.5 98.276 377.719 97.3594C377.938 96.4323 378.255 95.625 378.672 94.9375C379.099 94.25 379.62 93.7188 380.234 93.3438C380.849 92.9688 381.552 92.7812 382.344 92.7812C382.594 92.7812 382.849 92.8021 383.109 92.8438C383.37 92.875 383.583 92.9219 383.75 92.9844ZM393.344 110.312C392.031 110.312 390.854 110.104 389.812 109.688C388.771 109.26 387.885 108.672 387.156 107.922C386.438 107.172 385.885 106.302 385.5 105.312C385.115 104.312 384.922 103.25 384.922 102.125V101.5C384.922 100.219 385.104 99.0469 385.469 97.9844C385.833 96.9219 386.354 96 387.031 95.2188C387.719 94.4375 388.552 93.8385 389.531 93.4219C390.51 92.9948 391.615 92.7812 392.844 92.7812C394.042 92.7812 395.104 92.9792 396.031 93.375C396.958 93.7708 397.734 94.3333 398.359 95.0625C398.995 95.7917 399.474 96.6667 399.797 97.6875C400.12 98.6979 400.281 99.8229 400.281 101.062V102.938H386.844V99.9375H395.859V99.5938C395.859 98.9688 395.745 98.4115 395.516 97.9219C395.297 97.4219 394.964 97.026 394.516 96.7344C394.068 96.4427 393.495 96.2969 392.797 96.2969C392.203 96.2969 391.693 96.4271 391.266 96.6875C390.839 96.9479 390.49 97.3125 390.219 97.7812C389.958 98.25 389.76 98.8021 389.625 99.4375C389.5 100.062 389.438 100.75 389.438 101.5V102.125C389.438 102.802 389.531 103.427 389.719 104C389.917 104.573 390.193 105.068 390.547 105.484C390.911 105.901 391.349 106.224 391.859 106.453C392.38 106.682 392.969 106.797 393.625 106.797C394.438 106.797 395.193 106.641 395.891 106.328C396.599 106.005 397.208 105.521 397.719 104.875L399.906 107.25C399.552 107.76 399.068 108.25 398.453 108.719C397.849 109.188 397.12 109.573 396.266 109.875C395.411 110.167 394.438 110.312 393.344 110.312ZM415.781 87.25V110H411.094V87.25H415.781ZM424.844 96.9688V100.625H414.5V96.9688H424.844ZM425.938 87.25V90.9219H414.5V87.25H425.938ZM433.125 86V110H428.609V86H433.125ZM445.969 106.188V98.6562C445.969 98.1146 445.88 97.651 445.703 97.2656C445.526 96.8698 445.25 96.5625 444.875 96.3438C444.51 96.125 444.036 96.0156 443.453 96.0156C442.953 96.0156 442.521 96.1042 442.156 96.2812C441.792 96.4479 441.51 96.6927 441.312 97.0156C441.115 97.3281 441.016 97.6979 441.016 98.125H436.516C436.516 97.4062 436.682 96.724 437.016 96.0781C437.349 95.4323 437.833 94.8646 438.469 94.375C439.104 93.875 439.859 93.4844 440.734 93.2031C441.62 92.9219 442.609 92.7812 443.703 92.7812C445.016 92.7812 446.182 93 447.203 93.4375C448.224 93.875 449.026 94.5312 449.609 95.4062C450.203 96.2812 450.5 97.375 450.5 98.6875V105.922C450.5 106.849 450.557 107.609 450.672 108.203C450.786 108.786 450.953 109.297 451.172 109.734V110H446.625C446.406 109.542 446.24 108.969 446.125 108.281C446.021 107.583 445.969 106.885 445.969 106.188ZM446.562 99.7031L446.594 102.25H444.078C443.484 102.25 442.969 102.318 442.531 102.453C442.094 102.589 441.734 102.781 441.453 103.031C441.172 103.271 440.964 103.552 440.828 103.875C440.703 104.198 440.641 104.552 440.641 104.938C440.641 105.323 440.729 105.672 440.906 105.984C441.083 106.286 441.339 106.526 441.672 106.703C442.005 106.87 442.396 106.953 442.844 106.953C443.521 106.953 444.109 106.818 444.609 106.547C445.109 106.276 445.495 105.943 445.766 105.547C446.047 105.151 446.193 104.776 446.203 104.422L447.391 106.328C447.224 106.755 446.995 107.198 446.703 107.656C446.422 108.115 446.062 108.547 445.625 108.953C445.188 109.349 444.661 109.677 444.047 109.938C443.432 110.188 442.703 110.312 441.859 110.312C440.786 110.312 439.812 110.099 438.938 109.672C438.073 109.234 437.385 108.635 436.875 107.875C436.375 107.104 436.125 106.229 436.125 105.25C436.125 104.365 436.292 103.578 436.625 102.891C436.958 102.203 437.448 101.625 438.094 101.156C438.75 100.677 439.568 100.318 440.547 100.078C441.526 99.8281 442.661 99.7031 443.953 99.7031H446.562ZM464.672 93.0938H468.75V109.438C468.75 110.979 468.406 112.286 467.719 113.359C467.042 114.443 466.094 115.26 464.875 115.812C463.656 116.375 462.24 116.656 460.625 116.656C459.917 116.656 459.167 116.562 458.375 116.375C457.594 116.188 456.844 115.896 456.125 115.5C455.417 115.104 454.823 114.604 454.344 114L456.328 111.344C456.849 111.948 457.453 112.417 458.141 112.75C458.828 113.094 459.589 113.266 460.422 113.266C461.234 113.266 461.922 113.115 462.484 112.812C463.047 112.521 463.479 112.089 463.781 111.516C464.083 110.953 464.234 110.271 464.234 109.469V97L464.672 93.0938ZM453.297 101.75V101.422C453.297 100.13 453.453 98.9583 453.766 97.9062C454.089 96.8438 454.542 95.9323 455.125 95.1719C455.719 94.4115 456.438 93.8229 457.281 93.4062C458.125 92.9896 459.078 92.7812 460.141 92.7812C461.266 92.7812 462.208 92.9896 462.969 93.4062C463.729 93.8229 464.354 94.4167 464.844 95.1875C465.333 95.9479 465.714 96.849 465.984 97.8906C466.266 98.9219 466.484 100.052 466.641 101.281V102C466.484 103.177 466.25 104.271 465.938 105.281C465.625 106.292 465.214 107.177 464.703 107.938C464.193 108.688 463.557 109.271 462.797 109.688C462.047 110.104 461.151 110.312 460.109 110.312C459.068 110.312 458.125 110.099 457.281 109.672C456.448 109.245 455.734 108.646 455.141 107.875C454.547 107.104 454.089 106.198 453.766 105.156C453.453 104.115 453.297 102.979 453.297 101.75ZM457.797 101.422V101.75C457.797 102.448 457.865 103.099 458 103.703C458.135 104.307 458.344 104.844 458.625 105.312C458.917 105.771 459.276 106.13 459.703 106.391C460.141 106.641 460.656 106.766 461.25 106.766C462.073 106.766 462.745 106.594 463.266 106.25C463.786 105.896 464.177 105.411 464.438 104.797C464.698 104.182 464.849 103.474 464.891 102.672V100.625C464.87 99.9688 464.781 99.3802 464.625 98.8594C464.469 98.3281 464.25 97.875 463.969 97.5C463.688 97.125 463.323 96.8333 462.875 96.625C462.427 96.4167 461.896 96.3125 461.281 96.3125C460.688 96.3125 460.172 96.4479 459.734 96.7188C459.307 96.9792 458.948 97.3385 458.656 97.7969C458.375 98.2552 458.161 98.7969 458.016 99.4219C457.87 100.036 457.797 100.703 457.797 101.422ZM481.391 105.328C481.391 105.005 481.297 104.714 481.109 104.453C480.922 104.193 480.573 103.953 480.062 103.734C479.562 103.505 478.839 103.297 477.891 103.109C477.036 102.922 476.24 102.688 475.5 102.406C474.771 102.115 474.135 101.766 473.594 101.359C473.062 100.953 472.646 100.474 472.344 99.9219C472.042 99.3594 471.891 98.7188 471.891 98C471.891 97.2917 472.042 96.625 472.344 96C472.656 95.375 473.099 94.8229 473.672 94.3438C474.255 93.8542 474.964 93.474 475.797 93.2031C476.641 92.9219 477.589 92.7812 478.641 92.7812C480.109 92.7812 481.37 93.0156 482.422 93.4844C483.484 93.9531 484.297 94.599 484.859 95.4219C485.432 96.2344 485.719 97.1615 485.719 98.2031H481.219C481.219 97.7656 481.125 97.375 480.938 97.0312C480.76 96.6771 480.479 96.401 480.094 96.2031C479.719 95.9948 479.229 95.8906 478.625 95.8906C478.125 95.8906 477.693 95.9792 477.328 96.1562C476.964 96.3229 476.682 96.5521 476.484 96.8438C476.297 97.125 476.203 97.4375 476.203 97.7812C476.203 98.0417 476.255 98.276 476.359 98.4844C476.474 98.6823 476.656 98.8646 476.906 99.0312C477.156 99.1979 477.479 99.3542 477.875 99.5C478.281 99.6354 478.781 99.7604 479.375 99.875C480.594 100.125 481.682 100.453 482.641 100.859C483.599 101.255 484.359 101.797 484.922 102.484C485.484 103.161 485.766 104.052 485.766 105.156C485.766 105.906 485.599 106.594 485.266 107.219C484.932 107.844 484.453 108.391 483.828 108.859C483.203 109.318 482.453 109.677 481.578 109.938C480.714 110.188 479.74 110.312 478.656 110.312C477.083 110.312 475.75 110.031 474.656 109.469C473.573 108.906 472.75 108.193 472.188 107.328C471.635 106.453 471.359 105.557 471.359 104.641H475.625C475.646 105.255 475.802 105.75 476.094 106.125C476.396 106.5 476.776 106.771 477.234 106.938C477.703 107.104 478.208 107.188 478.75 107.188C479.333 107.188 479.818 107.109 480.203 106.953C480.589 106.786 480.88 106.568 481.078 106.297C481.286 106.016 481.391 105.693 481.391 105.328ZM499.078 87.25H503.047L508.891 103.953L514.734 87.25H518.703L510.484 110H507.297L499.078 87.25ZM496.938 87.25H500.891L501.609 103.531V110H496.938V87.25ZM516.891 87.25H520.859V110H516.172V103.531L516.891 87.25ZM523.969 101.719V101.391C523.969 100.151 524.146 99.0104 524.5 97.9688C524.854 96.9167 525.37 96.0052 526.047 95.2344C526.724 94.4635 527.557 93.8646 528.547 93.4375C529.536 93 530.672 92.7812 531.953 92.7812C533.234 92.7812 534.375 93 535.375 93.4375C536.375 93.8646 537.214 94.4635 537.891 95.2344C538.578 96.0052 539.099 96.9167 539.453 97.9688C539.807 99.0104 539.984 100.151 539.984 101.391V101.719C539.984 102.948 539.807 104.089 539.453 105.141C539.099 106.182 538.578 107.094 537.891 107.875C537.214 108.646 536.38 109.245 535.391 109.672C534.401 110.099 533.266 110.312 531.984 110.312C530.703 110.312 529.562 110.099 528.562 109.672C527.573 109.245 526.734 108.646 526.047 107.875C525.37 107.094 524.854 106.182 524.5 105.141C524.146 104.089 523.969 102.948 523.969 101.719ZM528.469 101.391V101.719C528.469 102.427 528.531 103.089 528.656 103.703C528.781 104.318 528.979 104.859 529.25 105.328C529.531 105.786 529.896 106.146 530.344 106.406C530.792 106.667 531.339 106.797 531.984 106.797C532.609 106.797 533.146 106.667 533.594 106.406C534.042 106.146 534.401 105.786 534.672 105.328C534.943 104.859 535.141 104.318 535.266 103.703C535.401 103.089 535.469 102.427 535.469 101.719V101.391C535.469 100.703 535.401 100.057 535.266 99.4531C535.141 98.8385 534.938 98.2969 534.656 97.8281C534.385 97.349 534.026 96.974 533.578 96.7031C533.13 96.4323 532.589 96.2969 531.953 96.2969C531.318 96.2969 530.776 96.4323 530.328 96.7031C529.891 96.974 529.531 97.349 529.25 97.8281C528.979 98.2969 528.781 98.8385 528.656 99.4531C528.531 100.057 528.469 100.703 528.469 101.391ZM552.734 106.312V86H557.266V110H553.188L552.734 106.312ZM542.047 101.75V101.422C542.047 100.13 542.193 98.9583 542.484 97.9062C542.776 96.8438 543.203 95.9323 543.766 95.1719C544.328 94.4115 545.021 93.8229 545.844 93.4062C546.667 92.9896 547.604 92.7812 548.656 92.7812C549.646 92.7812 550.51 92.9896 551.25 93.4062C552 93.8229 552.635 94.4167 553.156 95.1875C553.688 95.9479 554.115 96.849 554.438 97.8906C554.76 98.9219 554.995 100.052 555.141 101.281V102C554.995 103.177 554.76 104.271 554.438 105.281C554.115 106.292 553.688 107.177 553.156 107.938C552.635 108.688 552 109.271 551.25 109.688C550.5 110.104 549.625 110.312 548.625 110.312C547.573 110.312 546.635 110.099 545.812 109.672C545 109.245 544.312 108.646 543.75 107.875C543.198 107.104 542.776 106.198 542.484 105.156C542.193 104.115 542.047 102.979 542.047 101.75ZM546.547 101.422V101.75C546.547 102.448 546.599 103.099 546.703 103.703C546.818 104.307 547 104.844 547.25 105.312C547.51 105.771 547.844 106.13 548.25 106.391C548.667 106.641 549.172 106.766 549.766 106.766C550.536 106.766 551.172 106.594 551.672 106.25C552.172 105.896 552.552 105.411 552.812 104.797C553.083 104.182 553.24 103.474 553.281 102.672V100.625C553.25 99.9688 553.156 99.3802 553 98.8594C552.854 98.3281 552.635 97.875 552.344 97.5C552.062 97.125 551.708 96.8333 551.281 96.625C550.865 96.4167 550.37 96.3125 549.797 96.3125C549.214 96.3125 548.714 96.4479 548.297 96.7188C547.88 96.9792 547.542 97.3385 547.281 97.7969C547.031 98.2552 546.844 98.7969 546.719 99.4219C546.604 100.036 546.547 100.703 546.547 101.422ZM570.781 105.953V93.0938H575.281V110H571.047L570.781 105.953ZM571.281 102.484L572.609 102.453C572.609 103.578 572.479 104.625 572.219 105.594C571.958 106.552 571.568 107.385 571.047 108.094C570.526 108.792 569.87 109.339 569.078 109.734C568.286 110.12 567.354 110.312 566.281 110.312C565.458 110.312 564.698 110.198 564 109.969C563.312 109.729 562.719 109.359 562.219 108.859C561.729 108.349 561.344 107.698 561.062 106.906C560.792 106.104 560.656 105.141 560.656 104.016V93.0938H565.156V104.047C565.156 104.547 565.214 104.969 565.328 105.312C565.453 105.656 565.625 105.938 565.844 106.156C566.062 106.375 566.318 106.531 566.609 106.625C566.911 106.719 567.245 106.766 567.609 106.766C568.536 106.766 569.266 106.578 569.797 106.203C570.339 105.828 570.719 105.318 570.938 104.672C571.167 104.016 571.281 103.286 571.281 102.484ZM583.469 86V110H578.953V86H583.469ZM594.969 110.312C593.656 110.312 592.479 110.104 591.438 109.688C590.396 109.26 589.51 108.672 588.781 107.922C588.062 107.172 587.51 106.302 587.125 105.312C586.74 104.312 586.547 103.25 586.547 102.125V101.5C586.547 100.219 586.729 99.0469 587.094 97.9844C587.458 96.9219 587.979 96 588.656 95.2188C589.344 94.4375 590.177 93.8385 591.156 93.4219C592.135 92.9948 593.24 92.7812 594.469 92.7812C595.667 92.7812 596.729 92.9792 597.656 93.375C598.583 93.7708 599.359 94.3333 599.984 95.0625C600.62 95.7917 601.099 96.6667 601.422 97.6875C601.745 98.6979 601.906 99.8229 601.906 101.062V102.938H588.469V99.9375H597.484V99.5938C597.484 98.9688 597.37 98.4115 597.141 97.9219C596.922 97.4219 596.589 97.026 596.141 96.7344C595.693 96.4427 595.12 96.2969 594.422 96.2969C593.828 96.2969 593.318 96.4271 592.891 96.6875C592.464 96.9479 592.115 97.3125 591.844 97.7812C591.583 98.25 591.385 98.8021 591.25 99.4375C591.125 100.062 591.062 100.75 591.062 101.5V102.125C591.062 102.802 591.156 103.427 591.344 104C591.542 104.573 591.818 105.068 592.172 105.484C592.536 105.901 592.974 106.224 593.484 106.453C594.005 106.682 594.594 106.797 595.25 106.797C596.062 106.797 596.818 106.641 597.516 106.328C598.224 106.005 598.833 105.521 599.344 104.875L601.531 107.25C601.177 107.76 600.693 108.25 600.078 108.719C599.474 109.188 598.745 109.573 597.891 109.875C597.036 110.167 596.062 110.312 594.969 110.312Z" fill="#00DC82"/>
<path d="M228.449 142.467V144H221.34V142.467H228.449ZM221.711 129.781V144H219.826V129.781H221.711ZM232.297 133.434V144H230.48V133.434H232.297ZM230.344 130.631C230.344 130.338 230.432 130.09 230.607 129.889C230.79 129.687 231.057 129.586 231.408 129.586C231.753 129.586 232.017 129.687 232.199 129.889C232.388 130.09 232.482 130.338 232.482 130.631C232.482 130.911 232.388 131.152 232.199 131.354C232.017 131.549 231.753 131.646 231.408 131.646C231.057 131.646 230.79 131.549 230.607 131.354C230.432 131.152 230.344 130.911 230.344 130.631ZM242.043 133.434H243.684V143.775C243.684 144.706 243.495 145.501 243.117 146.158C242.74 146.816 242.212 147.314 241.535 147.652C240.865 147.997 240.09 148.17 239.211 148.17C238.846 148.17 238.417 148.111 237.922 147.994C237.434 147.883 236.952 147.691 236.477 147.418C236.008 147.151 235.614 146.79 235.295 146.334L236.242 145.26C236.685 145.794 237.147 146.165 237.629 146.373C238.117 146.581 238.599 146.686 239.074 146.686C239.647 146.686 240.142 146.578 240.559 146.363C240.975 146.148 241.298 145.829 241.525 145.406C241.76 144.99 241.877 144.475 241.877 143.863V135.758L242.043 133.434ZM234.768 138.834V138.629C234.768 137.822 234.862 137.089 235.051 136.432C235.246 135.768 235.523 135.198 235.881 134.723C236.245 134.247 236.685 133.883 237.199 133.629C237.714 133.368 238.293 133.238 238.938 133.238C239.602 133.238 240.181 133.355 240.676 133.59C241.177 133.818 241.6 134.153 241.945 134.596C242.297 135.032 242.574 135.559 242.775 136.178C242.977 136.796 243.117 137.496 243.195 138.277V139.176C243.124 139.951 242.984 140.647 242.775 141.266C242.574 141.884 242.297 142.411 241.945 142.848C241.6 143.284 241.177 143.619 240.676 143.854C240.174 144.081 239.589 144.195 238.918 144.195C238.286 144.195 237.714 144.062 237.199 143.795C236.691 143.528 236.255 143.154 235.891 142.672C235.526 142.19 235.246 141.624 235.051 140.973C234.862 140.315 234.768 139.602 234.768 138.834ZM236.574 138.629V138.834C236.574 139.361 236.626 139.856 236.73 140.318C236.841 140.781 237.007 141.188 237.229 141.539C237.456 141.891 237.746 142.167 238.098 142.369C238.449 142.564 238.869 142.662 239.357 142.662C239.956 142.662 240.451 142.535 240.842 142.281C241.232 142.027 241.542 141.692 241.77 141.275C242.004 140.859 242.186 140.406 242.316 139.918V137.564C242.245 137.206 242.134 136.861 241.984 136.529C241.841 136.191 241.652 135.891 241.418 135.631C241.19 135.364 240.907 135.152 240.568 134.996C240.23 134.84 239.833 134.762 239.377 134.762C238.882 134.762 238.456 134.866 238.098 135.074C237.746 135.276 237.456 135.556 237.229 135.914C237.007 136.266 236.841 136.676 236.73 137.145C236.626 137.607 236.574 138.102 236.574 138.629ZM248.234 129V144H246.428V129H248.234ZM247.805 138.316L247.053 138.287C247.059 137.564 247.167 136.897 247.375 136.285C247.583 135.667 247.876 135.13 248.254 134.674C248.632 134.218 249.081 133.867 249.602 133.619C250.129 133.365 250.712 133.238 251.35 133.238C251.87 133.238 252.339 133.31 252.756 133.453C253.173 133.59 253.527 133.811 253.82 134.117C254.12 134.423 254.348 134.82 254.504 135.309C254.66 135.79 254.738 136.38 254.738 137.076V144H252.922V137.057C252.922 136.503 252.84 136.061 252.678 135.729C252.515 135.39 252.277 135.146 251.965 134.996C251.652 134.84 251.268 134.762 250.812 134.762C250.363 134.762 249.953 134.856 249.582 135.045C249.217 135.234 248.902 135.494 248.635 135.826C248.374 136.158 248.169 136.539 248.02 136.969C247.876 137.392 247.805 137.841 247.805 138.316ZM261.867 133.434V134.82H256.154V133.434H261.867ZM258.088 130.865H259.895V141.383C259.895 141.741 259.95 142.011 260.061 142.193C260.171 142.376 260.314 142.496 260.49 142.555C260.666 142.613 260.855 142.643 261.057 142.643C261.206 142.643 261.363 142.63 261.525 142.604C261.695 142.571 261.822 142.545 261.906 142.525L261.916 144C261.773 144.046 261.584 144.088 261.35 144.127C261.122 144.173 260.845 144.195 260.52 144.195C260.077 144.195 259.67 144.107 259.299 143.932C258.928 143.756 258.632 143.463 258.41 143.053C258.195 142.636 258.088 142.076 258.088 141.373V130.865ZM266.662 142.125L269.377 133.434H270.568L270.334 135.162L267.57 144H266.408L266.662 142.125ZM264.836 133.434L267.15 142.223L267.316 144H266.096L263.029 133.434H264.836ZM273.166 142.154L275.373 133.434H277.17L274.104 144H272.893L273.166 142.154ZM270.832 133.434L273.488 141.979L273.791 144H272.639L269.797 135.143L269.562 133.434H270.832ZM283.41 144.195C282.674 144.195 282.007 144.072 281.408 143.824C280.816 143.57 280.305 143.215 279.875 142.76C279.452 142.304 279.126 141.764 278.898 141.139C278.671 140.514 278.557 139.83 278.557 139.088V138.678C278.557 137.818 278.684 137.053 278.938 136.383C279.191 135.706 279.536 135.133 279.973 134.664C280.409 134.195 280.904 133.84 281.457 133.6C282.01 133.359 282.583 133.238 283.176 133.238C283.931 133.238 284.582 133.368 285.129 133.629C285.682 133.889 286.135 134.254 286.486 134.723C286.838 135.185 287.098 135.732 287.268 136.363C287.437 136.988 287.521 137.672 287.521 138.414V139.225H279.631V137.75H285.715V137.613C285.689 137.145 285.591 136.689 285.422 136.246C285.259 135.803 284.999 135.439 284.641 135.152C284.283 134.866 283.794 134.723 283.176 134.723C282.766 134.723 282.388 134.811 282.043 134.986C281.698 135.156 281.402 135.41 281.154 135.748C280.907 136.087 280.715 136.5 280.578 136.988C280.441 137.477 280.373 138.04 280.373 138.678V139.088C280.373 139.589 280.441 140.061 280.578 140.504C280.721 140.94 280.926 141.324 281.193 141.656C281.467 141.988 281.796 142.249 282.18 142.438C282.57 142.626 283.013 142.721 283.508 142.721C284.146 142.721 284.686 142.59 285.129 142.33C285.572 142.07 285.959 141.721 286.291 141.285L287.385 142.154C287.157 142.499 286.867 142.828 286.516 143.141C286.164 143.453 285.731 143.707 285.217 143.902C284.709 144.098 284.107 144.195 283.41 144.195ZM291.594 133.434V144H289.777V133.434H291.594ZM289.641 130.631C289.641 130.338 289.729 130.09 289.904 129.889C290.087 129.687 290.354 129.586 290.705 129.586C291.05 129.586 291.314 129.687 291.496 129.889C291.685 130.09 291.779 130.338 291.779 130.631C291.779 130.911 291.685 131.152 291.496 131.354C291.314 131.549 291.05 131.646 290.705 131.646C290.354 131.646 290.087 131.549 289.904 131.354C289.729 131.152 289.641 130.911 289.641 130.631ZM301.34 133.434H302.98V143.775C302.98 144.706 302.792 145.501 302.414 146.158C302.036 146.816 301.509 147.314 300.832 147.652C300.161 147.997 299.387 148.17 298.508 148.17C298.143 148.17 297.714 148.111 297.219 147.994C296.73 147.883 296.249 147.691 295.773 147.418C295.305 147.151 294.911 146.79 294.592 146.334L295.539 145.26C295.982 145.794 296.444 146.165 296.926 146.373C297.414 146.581 297.896 146.686 298.371 146.686C298.944 146.686 299.439 146.578 299.855 146.363C300.272 146.148 300.594 145.829 300.822 145.406C301.057 144.99 301.174 144.475 301.174 143.863V135.758L301.34 133.434ZM294.064 138.834V138.629C294.064 137.822 294.159 137.089 294.348 136.432C294.543 135.768 294.82 135.198 295.178 134.723C295.542 134.247 295.982 133.883 296.496 133.629C297.01 133.368 297.59 133.238 298.234 133.238C298.898 133.238 299.478 133.355 299.973 133.59C300.474 133.818 300.897 134.153 301.242 134.596C301.594 135.032 301.87 135.559 302.072 136.178C302.274 136.796 302.414 137.496 302.492 138.277V139.176C302.421 139.951 302.281 140.647 302.072 141.266C301.87 141.884 301.594 142.411 301.242 142.848C300.897 143.284 300.474 143.619 299.973 143.854C299.471 144.081 298.885 144.195 298.215 144.195C297.583 144.195 297.01 144.062 296.496 143.795C295.988 143.528 295.552 143.154 295.188 142.672C294.823 142.19 294.543 141.624 294.348 140.973C294.159 140.315 294.064 139.602 294.064 138.834ZM295.871 138.629V138.834C295.871 139.361 295.923 139.856 296.027 140.318C296.138 140.781 296.304 141.188 296.525 141.539C296.753 141.891 297.043 142.167 297.395 142.369C297.746 142.564 298.166 142.662 298.654 142.662C299.253 142.662 299.748 142.535 300.139 142.281C300.529 142.027 300.839 141.692 301.066 141.275C301.301 140.859 301.483 140.406 301.613 139.918V137.564C301.542 137.206 301.431 136.861 301.281 136.529C301.138 136.191 300.949 135.891 300.715 135.631C300.487 135.364 300.204 135.152 299.865 134.996C299.527 134.84 299.13 134.762 298.674 134.762C298.179 134.762 297.753 134.866 297.395 135.074C297.043 135.276 296.753 135.556 296.525 135.914C296.304 136.266 296.138 136.676 296.027 137.145C295.923 137.607 295.871 138.102 295.871 138.629ZM307.531 129V144H305.725V129H307.531ZM307.102 138.316L306.35 138.287C306.356 137.564 306.464 136.897 306.672 136.285C306.88 135.667 307.173 135.13 307.551 134.674C307.928 134.218 308.378 133.867 308.898 133.619C309.426 133.365 310.008 133.238 310.646 133.238C311.167 133.238 311.636 133.31 312.053 133.453C312.469 133.59 312.824 133.811 313.117 134.117C313.417 134.423 313.645 134.82 313.801 135.309C313.957 135.79 314.035 136.38 314.035 137.076V144H312.219V137.057C312.219 136.503 312.137 136.061 311.975 135.729C311.812 135.39 311.574 135.146 311.262 134.996C310.949 134.84 310.565 134.762 310.109 134.762C309.66 134.762 309.25 134.856 308.879 135.045C308.514 135.234 308.199 135.494 307.932 135.826C307.671 136.158 307.466 136.539 307.316 136.969C307.173 137.392 307.102 137.841 307.102 138.316ZM321.164 133.434V134.82H315.451V133.434H321.164ZM317.385 130.865H319.191V141.383C319.191 141.741 319.247 142.011 319.357 142.193C319.468 142.376 319.611 142.496 319.787 142.555C319.963 142.613 320.152 142.643 320.354 142.643C320.503 142.643 320.66 142.63 320.822 142.604C320.992 142.571 321.118 142.545 321.203 142.525L321.213 144C321.07 144.046 320.881 144.088 320.646 144.127C320.419 144.173 320.142 144.195 319.816 144.195C319.374 144.195 318.967 144.107 318.596 143.932C318.225 143.756 317.928 143.463 317.707 143.053C317.492 142.636 317.385 142.076 317.385 141.373V130.865ZM324.924 141.852V143.307C324.924 143.899 324.774 144.524 324.475 145.182C324.175 145.846 323.755 146.399 323.215 146.842L322.189 146.129C322.398 145.842 322.574 145.549 322.717 145.25C322.86 144.957 322.967 144.651 323.039 144.332C323.117 144.02 323.156 143.688 323.156 143.336V141.852H324.924ZM336.574 144.195C335.839 144.195 335.171 144.072 334.572 143.824C333.98 143.57 333.469 143.215 333.039 142.76C332.616 142.304 332.29 141.764 332.062 141.139C331.835 140.514 331.721 139.83 331.721 139.088V138.678C331.721 137.818 331.848 137.053 332.102 136.383C332.355 135.706 332.701 135.133 333.137 134.664C333.573 134.195 334.068 133.84 334.621 133.6C335.174 133.359 335.747 133.238 336.34 133.238C337.095 133.238 337.746 133.368 338.293 133.629C338.846 133.889 339.299 134.254 339.65 134.723C340.002 135.185 340.262 135.732 340.432 136.363C340.601 136.988 340.686 137.672 340.686 138.414V139.225H332.795V137.75H338.879V137.613C338.853 137.145 338.755 136.689 338.586 136.246C338.423 135.803 338.163 135.439 337.805 135.152C337.447 134.866 336.958 134.723 336.34 134.723C335.93 134.723 335.552 134.811 335.207 134.986C334.862 135.156 334.566 135.41 334.318 135.748C334.071 136.087 333.879 136.5 333.742 136.988C333.605 137.477 333.537 138.04 333.537 138.678V139.088C333.537 139.589 333.605 140.061 333.742 140.504C333.885 140.94 334.09 141.324 334.357 141.656C334.631 141.988 334.96 142.249 335.344 142.438C335.734 142.626 336.177 142.721 336.672 142.721C337.31 142.721 337.85 142.59 338.293 142.33C338.736 142.07 339.123 141.721 339.455 141.285L340.549 142.154C340.321 142.499 340.031 142.828 339.68 143.141C339.328 143.453 338.895 143.707 338.381 143.902C337.873 144.098 337.271 144.195 336.574 144.195ZM344.602 135.689V144H342.795V133.434H344.504L344.602 135.689ZM344.172 138.316L343.42 138.287C343.426 137.564 343.534 136.897 343.742 136.285C343.951 135.667 344.243 135.13 344.621 134.674C344.999 134.218 345.448 133.867 345.969 133.619C346.496 133.365 347.079 133.238 347.717 133.238C348.238 133.238 348.706 133.31 349.123 133.453C349.54 133.59 349.895 133.811 350.188 134.117C350.487 134.423 350.715 134.82 350.871 135.309C351.027 135.79 351.105 136.38 351.105 137.076V144H349.289V137.057C349.289 136.503 349.208 136.061 349.045 135.729C348.882 135.39 348.645 135.146 348.332 134.996C348.02 134.84 347.635 134.762 347.18 134.762C346.73 134.762 346.32 134.856 345.949 135.045C345.585 135.234 345.269 135.494 345.002 135.826C344.742 136.158 344.536 136.539 344.387 136.969C344.243 137.392 344.172 137.841 344.172 138.316ZM357.062 142.369L359.953 133.434H361.799L358 144H356.789L357.062 142.369ZM354.65 133.434L357.629 142.418L357.834 144H356.623L352.795 133.434H354.65ZM365.5 133.434V144H363.684V133.434H365.5ZM363.547 130.631C363.547 130.338 363.635 130.09 363.811 129.889C363.993 129.687 364.26 129.586 364.611 129.586C364.956 129.586 365.22 129.687 365.402 129.889C365.591 130.09 365.686 130.338 365.686 130.631C365.686 130.911 365.591 131.152 365.402 131.354C365.22 131.549 364.956 131.646 364.611 131.646C364.26 131.646 363.993 131.549 363.811 131.354C363.635 131.152 363.547 130.911 363.547 130.631ZM370.207 135.094V144H368.4V133.434H370.158L370.207 135.094ZM373.508 133.375L373.498 135.055C373.348 135.022 373.205 135.003 373.068 134.996C372.938 134.983 372.788 134.977 372.619 134.977C372.202 134.977 371.835 135.042 371.516 135.172C371.197 135.302 370.926 135.484 370.705 135.719C370.484 135.953 370.308 136.233 370.178 136.559C370.054 136.878 369.973 137.229 369.934 137.613L369.426 137.906C369.426 137.268 369.488 136.669 369.611 136.109C369.742 135.549 369.94 135.055 370.207 134.625C370.474 134.189 370.812 133.85 371.223 133.609C371.639 133.362 372.134 133.238 372.707 133.238C372.837 133.238 372.987 133.255 373.156 133.287C373.326 133.313 373.443 133.342 373.508 133.375ZM374.504 138.834V138.609C374.504 137.848 374.615 137.141 374.836 136.49C375.057 135.833 375.376 135.263 375.793 134.781C376.21 134.293 376.714 133.915 377.307 133.648C377.899 133.375 378.563 133.238 379.299 133.238C380.041 133.238 380.708 133.375 381.301 133.648C381.9 133.915 382.408 134.293 382.824 134.781C383.247 135.263 383.57 135.833 383.791 136.49C384.012 137.141 384.123 137.848 384.123 138.609V138.834C384.123 139.596 384.012 140.302 383.791 140.953C383.57 141.604 383.247 142.174 382.824 142.662C382.408 143.144 381.903 143.521 381.311 143.795C380.725 144.062 380.061 144.195 379.318 144.195C378.576 144.195 377.909 144.062 377.316 143.795C376.724 143.521 376.216 143.144 375.793 142.662C375.376 142.174 375.057 141.604 374.836 140.953C374.615 140.302 374.504 139.596 374.504 138.834ZM376.311 138.609V138.834C376.311 139.361 376.372 139.859 376.496 140.328C376.62 140.79 376.805 141.201 377.053 141.559C377.307 141.917 377.622 142.2 378 142.408C378.378 142.61 378.817 142.711 379.318 142.711C379.813 142.711 380.246 142.61 380.617 142.408C380.995 142.2 381.307 141.917 381.555 141.559C381.802 141.201 381.988 140.79 382.111 140.328C382.242 139.859 382.307 139.361 382.307 138.834V138.609C382.307 138.089 382.242 137.597 382.111 137.135C381.988 136.666 381.799 136.253 381.545 135.895C381.298 135.53 380.985 135.243 380.607 135.035C380.236 134.827 379.8 134.723 379.299 134.723C378.804 134.723 378.368 134.827 377.99 135.035C377.619 135.243 377.307 135.53 377.053 135.895C376.805 136.253 376.62 136.666 376.496 137.135C376.372 137.597 376.311 138.089 376.311 138.609ZM388.195 135.689V144H386.389V133.434H388.098L388.195 135.689ZM387.766 138.316L387.014 138.287C387.02 137.564 387.128 136.897 387.336 136.285C387.544 135.667 387.837 135.13 388.215 134.674C388.592 134.218 389.042 133.867 389.562 133.619C390.09 133.365 390.673 133.238 391.311 133.238C391.831 133.238 392.3 133.31 392.717 133.453C393.133 133.59 393.488 133.811 393.781 134.117C394.081 134.423 394.309 134.82 394.465 135.309C394.621 135.79 394.699 136.38 394.699 137.076V144H392.883V137.057C392.883 136.503 392.801 136.061 392.639 135.729C392.476 135.39 392.238 135.146 391.926 134.996C391.613 134.84 391.229 134.762 390.773 134.762C390.324 134.762 389.914 134.856 389.543 135.045C389.178 135.234 388.863 135.494 388.596 135.826C388.335 136.158 388.13 136.539 387.98 136.969C387.837 137.392 387.766 137.841 387.766 138.316ZM399.24 135.533V144H397.424V133.434H399.143L399.24 135.533ZM398.869 138.316L398.029 138.287C398.036 137.564 398.13 136.897 398.312 136.285C398.495 135.667 398.765 135.13 399.123 134.674C399.481 134.218 399.927 133.867 400.461 133.619C400.995 133.365 401.613 133.238 402.316 133.238C402.811 133.238 403.267 133.31 403.684 133.453C404.1 133.59 404.462 133.808 404.768 134.107C405.074 134.407 405.311 134.791 405.48 135.26C405.65 135.729 405.734 136.295 405.734 136.959V144H403.928V137.047C403.928 136.493 403.833 136.051 403.645 135.719C403.462 135.387 403.202 135.146 402.863 134.996C402.525 134.84 402.128 134.762 401.672 134.762C401.138 134.762 400.692 134.856 400.334 135.045C399.976 135.234 399.689 135.494 399.475 135.826C399.26 136.158 399.104 136.539 399.006 136.969C398.915 137.392 398.869 137.841 398.869 138.316ZM405.715 137.32L404.504 137.691C404.51 137.112 404.605 136.555 404.787 136.021C404.976 135.488 405.246 135.012 405.598 134.596C405.956 134.179 406.395 133.85 406.916 133.609C407.437 133.362 408.033 133.238 408.703 133.238C409.27 133.238 409.771 133.313 410.207 133.463C410.65 133.613 411.021 133.844 411.32 134.156C411.626 134.462 411.857 134.856 412.014 135.338C412.17 135.82 412.248 136.393 412.248 137.057V144H410.432V137.037C410.432 136.445 410.337 135.986 410.148 135.66C409.966 135.328 409.706 135.097 409.367 134.967C409.035 134.83 408.638 134.762 408.176 134.762C407.779 134.762 407.427 134.83 407.121 134.967C406.815 135.104 406.558 135.292 406.35 135.533C406.141 135.768 405.982 136.038 405.871 136.344C405.767 136.65 405.715 136.975 405.715 137.32ZM419.367 144.195C418.632 144.195 417.964 144.072 417.365 143.824C416.773 143.57 416.262 143.215 415.832 142.76C415.409 142.304 415.083 141.764 414.855 141.139C414.628 140.514 414.514 139.83 414.514 139.088V138.678C414.514 137.818 414.641 137.053 414.895 136.383C415.148 135.706 415.493 135.133 415.93 134.664C416.366 134.195 416.861 133.84 417.414 133.6C417.967 133.359 418.54 133.238 419.133 133.238C419.888 133.238 420.539 133.368 421.086 133.629C421.639 133.889 422.092 134.254 422.443 134.723C422.795 135.185 423.055 135.732 423.225 136.363C423.394 136.988 423.479 137.672 423.479 138.414V139.225H415.588V137.75H421.672V137.613C421.646 137.145 421.548 136.689 421.379 136.246C421.216 135.803 420.956 135.439 420.598 135.152C420.24 134.866 419.751 134.723 419.133 134.723C418.723 134.723 418.345 134.811 418 134.986C417.655 135.156 417.359 135.41 417.111 135.748C416.864 136.087 416.672 136.5 416.535 136.988C416.398 137.477 416.33 138.04 416.33 138.678V139.088C416.33 139.589 416.398 140.061 416.535 140.504C416.678 140.94 416.883 141.324 417.15 141.656C417.424 141.988 417.753 142.249 418.137 142.438C418.527 142.626 418.97 142.721 419.465 142.721C420.103 142.721 420.643 142.59 421.086 142.33C421.529 142.07 421.916 141.721 422.248 141.285L423.342 142.154C423.114 142.499 422.824 142.828 422.473 143.141C422.121 143.453 421.688 143.707 421.174 143.902C420.666 144.098 420.064 144.195 419.367 144.195ZM427.395 135.689V144H425.588V133.434H427.297L427.395 135.689ZM426.965 138.316L426.213 138.287C426.219 137.564 426.327 136.897 426.535 136.285C426.743 135.667 427.036 135.13 427.414 134.674C427.792 134.218 428.241 133.867 428.762 133.619C429.289 133.365 429.872 133.238 430.51 133.238C431.031 133.238 431.499 133.31 431.916 133.453C432.333 133.59 432.688 133.811 432.98 134.117C433.28 134.423 433.508 134.82 433.664 135.309C433.82 135.79 433.898 136.38 433.898 137.076V144H432.082V137.057C432.082 136.503 432.001 136.061 431.838 135.729C431.675 135.39 431.438 135.146 431.125 134.996C430.812 134.84 430.428 134.762 429.973 134.762C429.523 134.762 429.113 134.856 428.742 135.045C428.378 135.234 428.062 135.494 427.795 135.826C427.535 136.158 427.329 136.539 427.18 136.969C427.036 137.392 426.965 137.841 426.965 138.316ZM441.066 133.434V134.82H435.354V133.434H441.066ZM437.287 130.865H439.094V141.383C439.094 141.741 439.149 142.011 439.26 142.193C439.37 142.376 439.514 142.496 439.689 142.555C439.865 142.613 440.054 142.643 440.256 142.643C440.406 142.643 440.562 142.63 440.725 142.604C440.894 142.571 441.021 142.545 441.105 142.525L441.115 144C440.972 144.046 440.783 144.088 440.549 144.127C440.321 144.173 440.044 144.195 439.719 144.195C439.276 144.195 438.869 144.107 438.498 143.932C438.127 143.756 437.831 143.463 437.609 143.053C437.395 142.636 437.287 142.076 437.287 141.373V130.865ZM446.945 137.213V138.697H442.18V137.213H446.945ZM448.703 129H450.52V141.949L450.363 144H448.703V129ZM457.658 138.629V138.834C457.658 139.602 457.567 140.315 457.385 140.973C457.202 141.624 456.936 142.19 456.584 142.672C456.232 143.154 455.803 143.528 455.295 143.795C454.787 144.062 454.204 144.195 453.547 144.195C452.876 144.195 452.287 144.081 451.779 143.854C451.278 143.619 450.855 143.284 450.51 142.848C450.165 142.411 449.888 141.884 449.68 141.266C449.478 140.647 449.338 139.951 449.26 139.176V138.277C449.338 137.496 449.478 136.796 449.68 136.178C449.888 135.559 450.165 135.032 450.51 134.596C450.855 134.153 451.278 133.818 451.779 133.59C452.281 133.355 452.863 133.238 453.527 133.238C454.191 133.238 454.781 133.368 455.295 133.629C455.809 133.883 456.239 134.247 456.584 134.723C456.936 135.198 457.202 135.768 457.385 136.432C457.567 137.089 457.658 137.822 457.658 138.629ZM455.842 138.834V138.629C455.842 138.102 455.793 137.607 455.695 137.145C455.598 136.676 455.441 136.266 455.227 135.914C455.012 135.556 454.729 135.276 454.377 135.074C454.025 134.866 453.592 134.762 453.078 134.762C452.622 134.762 452.225 134.84 451.887 134.996C451.555 135.152 451.271 135.364 451.037 135.631C450.803 135.891 450.611 136.191 450.461 136.529C450.318 136.861 450.21 137.206 450.139 137.564V139.918C450.243 140.374 450.412 140.813 450.646 141.236C450.887 141.653 451.206 141.995 451.604 142.262C452.007 142.529 452.505 142.662 453.098 142.662C453.586 142.662 454.003 142.564 454.348 142.369C454.699 142.167 454.982 141.891 455.197 141.539C455.419 141.188 455.581 140.781 455.686 140.318C455.79 139.856 455.842 139.361 455.842 138.834ZM466.174 142.193V136.754C466.174 136.337 466.089 135.976 465.92 135.67C465.757 135.357 465.51 135.117 465.178 134.947C464.846 134.778 464.436 134.693 463.947 134.693C463.492 134.693 463.091 134.771 462.746 134.928C462.408 135.084 462.141 135.289 461.945 135.543C461.757 135.797 461.662 136.07 461.662 136.363H459.855C459.855 135.986 459.953 135.611 460.148 135.24C460.344 134.869 460.624 134.534 460.988 134.234C461.359 133.928 461.802 133.688 462.316 133.512C462.837 133.329 463.417 133.238 464.055 133.238C464.823 133.238 465.5 133.368 466.086 133.629C466.678 133.889 467.141 134.283 467.473 134.811C467.811 135.331 467.98 135.986 467.98 136.773V141.695C467.98 142.047 468.01 142.421 468.068 142.818C468.133 143.215 468.228 143.557 468.352 143.844V144H466.467C466.376 143.792 466.304 143.515 466.252 143.17C466.2 142.818 466.174 142.493 466.174 142.193ZM466.486 137.594L466.506 138.863H464.68C464.165 138.863 463.706 138.906 463.303 138.99C462.899 139.068 462.561 139.189 462.287 139.352C462.014 139.514 461.805 139.719 461.662 139.967C461.519 140.208 461.447 140.491 461.447 140.816C461.447 141.148 461.522 141.451 461.672 141.725C461.822 141.998 462.046 142.216 462.346 142.379C462.652 142.535 463.026 142.613 463.469 142.613C464.022 142.613 464.51 142.496 464.934 142.262C465.357 142.027 465.692 141.741 465.939 141.402C466.193 141.064 466.33 140.735 466.35 140.416L467.121 141.285C467.076 141.559 466.952 141.861 466.75 142.193C466.548 142.525 466.278 142.844 465.939 143.15C465.607 143.45 465.21 143.701 464.748 143.902C464.292 144.098 463.778 144.195 463.205 144.195C462.489 144.195 461.861 144.055 461.32 143.775C460.786 143.495 460.37 143.121 460.07 142.652C459.777 142.177 459.631 141.646 459.631 141.061C459.631 140.494 459.742 139.996 459.963 139.566C460.184 139.13 460.503 138.769 460.92 138.482C461.337 138.189 461.838 137.968 462.424 137.818C463.01 137.669 463.664 137.594 464.387 137.594H466.486ZM476.975 141.197C476.975 140.937 476.916 140.696 476.799 140.475C476.688 140.247 476.457 140.042 476.105 139.859C475.76 139.671 475.24 139.508 474.543 139.371C473.957 139.247 473.426 139.101 472.951 138.932C472.482 138.762 472.082 138.557 471.75 138.316C471.424 138.076 471.174 137.792 470.998 137.467C470.822 137.141 470.734 136.76 470.734 136.324C470.734 135.908 470.826 135.514 471.008 135.143C471.197 134.771 471.46 134.443 471.799 134.156C472.144 133.87 472.557 133.645 473.039 133.482C473.521 133.32 474.058 133.238 474.65 133.238C475.497 133.238 476.219 133.388 476.818 133.688C477.417 133.987 477.876 134.387 478.195 134.889C478.514 135.383 478.674 135.934 478.674 136.539H476.867C476.867 136.246 476.779 135.963 476.604 135.689C476.434 135.41 476.184 135.178 475.852 134.996C475.526 134.814 475.126 134.723 474.65 134.723C474.149 134.723 473.742 134.801 473.43 134.957C473.124 135.107 472.899 135.299 472.756 135.533C472.619 135.768 472.551 136.015 472.551 136.275C472.551 136.471 472.583 136.646 472.648 136.803C472.72 136.952 472.844 137.092 473.02 137.223C473.195 137.346 473.443 137.464 473.762 137.574C474.081 137.685 474.488 137.796 474.982 137.906C475.848 138.102 476.561 138.336 477.121 138.609C477.681 138.883 478.098 139.218 478.371 139.615C478.645 140.012 478.781 140.494 478.781 141.061C478.781 141.523 478.684 141.946 478.488 142.33C478.299 142.714 478.023 143.046 477.658 143.326C477.3 143.6 476.87 143.814 476.369 143.971C475.874 144.12 475.318 144.195 474.699 144.195C473.768 144.195 472.98 144.029 472.336 143.697C471.691 143.365 471.203 142.936 470.871 142.408C470.539 141.881 470.373 141.324 470.373 140.738H472.189C472.215 141.233 472.359 141.627 472.619 141.92C472.88 142.206 473.199 142.411 473.576 142.535C473.954 142.652 474.328 142.711 474.699 142.711C475.194 142.711 475.607 142.646 475.939 142.516C476.278 142.385 476.535 142.206 476.711 141.979C476.887 141.751 476.975 141.49 476.975 141.197ZM485.539 144.195C484.803 144.195 484.136 144.072 483.537 143.824C482.945 143.57 482.434 143.215 482.004 142.76C481.581 142.304 481.255 141.764 481.027 141.139C480.799 140.514 480.686 139.83 480.686 139.088V138.678C480.686 137.818 480.812 137.053 481.066 136.383C481.32 135.706 481.665 135.133 482.102 134.664C482.538 134.195 483.033 133.84 483.586 133.6C484.139 133.359 484.712 133.238 485.305 133.238C486.06 133.238 486.711 133.368 487.258 133.629C487.811 133.889 488.264 134.254 488.615 134.723C488.967 135.185 489.227 135.732 489.396 136.363C489.566 136.988 489.65 137.672 489.65 138.414V139.225H481.76V137.75H487.844V137.613C487.818 137.145 487.72 136.689 487.551 136.246C487.388 135.803 487.128 135.439 486.77 135.152C486.411 134.866 485.923 134.723 485.305 134.723C484.895 134.723 484.517 134.811 484.172 134.986C483.827 135.156 483.531 135.41 483.283 135.748C483.036 136.087 482.844 136.5 482.707 136.988C482.57 137.477 482.502 138.04 482.502 138.678V139.088C482.502 139.589 482.57 140.061 482.707 140.504C482.85 140.94 483.055 141.324 483.322 141.656C483.596 141.988 483.924 142.249 484.309 142.438C484.699 142.626 485.142 142.721 485.637 142.721C486.275 142.721 486.815 142.59 487.258 142.33C487.701 142.07 488.088 141.721 488.42 141.285L489.514 142.154C489.286 142.499 488.996 142.828 488.645 143.141C488.293 143.453 487.86 143.707 487.346 143.902C486.838 144.098 486.236 144.195 485.539 144.195ZM498.42 141.949V129H500.236V144H498.576L498.42 141.949ZM491.311 138.834V138.629C491.311 137.822 491.408 137.089 491.604 136.432C491.805 135.768 492.089 135.198 492.453 134.723C492.824 134.247 493.264 133.883 493.771 133.629C494.286 133.368 494.859 133.238 495.49 133.238C496.154 133.238 496.734 133.355 497.229 133.59C497.73 133.818 498.153 134.153 498.498 134.596C498.85 135.032 499.126 135.559 499.328 136.178C499.53 136.796 499.67 137.496 499.748 138.277V139.176C499.676 139.951 499.536 140.647 499.328 141.266C499.126 141.884 498.85 142.411 498.498 142.848C498.153 143.284 497.73 143.619 497.229 143.854C496.727 144.081 496.141 144.195 495.471 144.195C494.852 144.195 494.286 144.062 493.771 143.795C493.264 143.528 492.824 143.154 492.453 142.672C492.089 142.19 491.805 141.624 491.604 140.973C491.408 140.315 491.311 139.602 491.311 138.834ZM493.127 138.629V138.834C493.127 139.361 493.179 139.856 493.283 140.318C493.394 140.781 493.563 141.188 493.791 141.539C494.019 141.891 494.309 142.167 494.66 142.369C495.012 142.564 495.432 142.662 495.92 142.662C496.519 142.662 497.01 142.535 497.395 142.281C497.785 142.027 498.098 141.692 498.332 141.275C498.566 140.859 498.749 140.406 498.879 139.918V137.564C498.801 137.206 498.687 136.861 498.537 136.529C498.394 136.191 498.205 135.891 497.971 135.631C497.743 135.364 497.46 135.152 497.121 134.996C496.789 134.84 496.395 134.762 495.939 134.762C495.445 134.762 495.018 134.866 494.66 135.074C494.309 135.276 494.019 135.556 493.791 135.914C493.563 136.266 493.394 136.676 493.283 137.145C493.179 137.607 493.127 138.102 493.127 138.629ZM510.705 144H508.898V132.32C508.898 131.559 509.035 130.917 509.309 130.396C509.589 129.869 509.989 129.472 510.51 129.205C511.031 128.932 511.649 128.795 512.365 128.795C512.574 128.795 512.782 128.808 512.99 128.834C513.205 128.86 513.413 128.899 513.615 128.951L513.518 130.426C513.381 130.393 513.225 130.37 513.049 130.357C512.88 130.344 512.71 130.338 512.541 130.338C512.157 130.338 511.825 130.416 511.545 130.572C511.271 130.722 511.063 130.943 510.92 131.236C510.777 131.529 510.705 131.891 510.705 132.32V144ZM512.951 133.434V134.82H507.229V133.434H512.951ZM519.113 144.195C518.378 144.195 517.71 144.072 517.111 143.824C516.519 143.57 516.008 143.215 515.578 142.76C515.155 142.304 514.829 141.764 514.602 141.139C514.374 140.514 514.26 139.83 514.26 139.088V138.678C514.26 137.818 514.387 137.053 514.641 136.383C514.895 135.706 515.24 135.133 515.676 134.664C516.112 134.195 516.607 133.84 517.16 133.6C517.714 133.359 518.286 133.238 518.879 133.238C519.634 133.238 520.285 133.368 520.832 133.629C521.385 133.889 521.838 134.254 522.189 134.723C522.541 135.185 522.801 135.732 522.971 136.363C523.14 136.988 523.225 137.672 523.225 138.414V139.225H515.334V137.75H521.418V137.613C521.392 137.145 521.294 136.689 521.125 136.246C520.962 135.803 520.702 135.439 520.344 135.152C519.986 134.866 519.497 134.723 518.879 134.723C518.469 134.723 518.091 134.811 517.746 134.986C517.401 135.156 517.105 135.41 516.857 135.748C516.61 136.087 516.418 136.5 516.281 136.988C516.145 137.477 516.076 138.04 516.076 138.678V139.088C516.076 139.589 516.145 140.061 516.281 140.504C516.424 140.94 516.63 141.324 516.896 141.656C517.17 141.988 517.499 142.249 517.883 142.438C518.273 142.626 518.716 142.721 519.211 142.721C519.849 142.721 520.389 142.59 520.832 142.33C521.275 142.07 521.662 141.721 521.994 141.285L523.088 142.154C522.86 142.499 522.57 142.828 522.219 143.141C521.867 143.453 521.434 143.707 520.92 143.902C520.412 144.098 519.81 144.195 519.113 144.195ZM531.564 142.193V136.754C531.564 136.337 531.48 135.976 531.311 135.67C531.148 135.357 530.9 135.117 530.568 134.947C530.236 134.778 529.826 134.693 529.338 134.693C528.882 134.693 528.482 134.771 528.137 134.928C527.798 135.084 527.531 135.289 527.336 135.543C527.147 135.797 527.053 136.07 527.053 136.363H525.246C525.246 135.986 525.344 135.611 525.539 135.24C525.734 134.869 526.014 134.534 526.379 134.234C526.75 133.928 527.193 133.688 527.707 133.512C528.228 133.329 528.807 133.238 529.445 133.238C530.214 133.238 530.891 133.368 531.477 133.629C532.069 133.889 532.531 134.283 532.863 134.811C533.202 135.331 533.371 135.986 533.371 136.773V141.695C533.371 142.047 533.4 142.421 533.459 142.818C533.524 143.215 533.618 143.557 533.742 143.844V144H531.857C531.766 143.792 531.695 143.515 531.643 143.17C531.59 142.818 531.564 142.493 531.564 142.193ZM531.877 137.594L531.896 138.863H530.07C529.556 138.863 529.097 138.906 528.693 138.99C528.29 139.068 527.951 139.189 527.678 139.352C527.404 139.514 527.196 139.719 527.053 139.967C526.91 140.208 526.838 140.491 526.838 140.816C526.838 141.148 526.913 141.451 527.062 141.725C527.212 141.998 527.437 142.216 527.736 142.379C528.042 142.535 528.417 142.613 528.859 142.613C529.413 142.613 529.901 142.496 530.324 142.262C530.747 142.027 531.083 141.741 531.33 141.402C531.584 141.064 531.721 140.735 531.74 140.416L532.512 141.285C532.466 141.559 532.342 141.861 532.141 142.193C531.939 142.525 531.669 142.844 531.33 143.15C530.998 143.45 530.601 143.701 530.139 143.902C529.683 144.098 529.169 144.195 528.596 144.195C527.88 144.195 527.251 144.055 526.711 143.775C526.177 143.495 525.76 143.121 525.461 142.652C525.168 142.177 525.021 141.646 525.021 141.061C525.021 140.494 525.132 139.996 525.354 139.566C525.575 139.13 525.894 138.769 526.311 138.482C526.727 138.189 527.229 137.968 527.814 137.818C528.4 137.669 529.055 137.594 529.777 137.594H531.877ZM540.637 133.434V134.82H534.924V133.434H540.637ZM536.857 130.865H538.664V141.383C538.664 141.741 538.719 142.011 538.83 142.193C538.941 142.376 539.084 142.496 539.26 142.555C539.436 142.613 539.624 142.643 539.826 142.643C539.976 142.643 540.132 142.63 540.295 142.604C540.464 142.571 540.591 142.545 540.676 142.525L540.686 144C540.542 144.046 540.354 144.088 540.119 144.127C539.891 144.173 539.615 144.195 539.289 144.195C538.846 144.195 538.439 144.107 538.068 143.932C537.697 143.756 537.401 143.463 537.18 143.053C536.965 142.636 536.857 142.076 536.857 141.373V130.865ZM549.221 141.559V133.434H551.037V144H549.309L549.221 141.559ZM549.562 139.332L550.314 139.312C550.314 140.016 550.24 140.667 550.09 141.266C549.947 141.858 549.712 142.372 549.387 142.809C549.061 143.245 548.635 143.587 548.107 143.834C547.58 144.075 546.939 144.195 546.184 144.195C545.669 144.195 545.197 144.12 544.768 143.971C544.344 143.821 543.98 143.59 543.674 143.277C543.368 142.965 543.13 142.558 542.961 142.057C542.798 141.555 542.717 140.953 542.717 140.25V133.434H544.523V140.27C544.523 140.745 544.576 141.139 544.68 141.451C544.79 141.757 544.937 142.001 545.119 142.184C545.308 142.359 545.516 142.483 545.744 142.555C545.979 142.626 546.219 142.662 546.467 142.662C547.235 142.662 547.844 142.516 548.293 142.223C548.742 141.923 549.064 141.523 549.26 141.021C549.462 140.514 549.562 139.951 549.562 139.332ZM555.598 135.094V144H553.791V133.434H555.549L555.598 135.094ZM558.898 133.375L558.889 135.055C558.739 135.022 558.596 135.003 558.459 134.996C558.329 134.983 558.179 134.977 558.01 134.977C557.593 134.977 557.225 135.042 556.906 135.172C556.587 135.302 556.317 135.484 556.096 135.719C555.874 135.953 555.699 136.233 555.568 136.559C555.445 136.878 555.363 137.229 555.324 137.613L554.816 137.906C554.816 137.268 554.878 136.669 555.002 136.109C555.132 135.549 555.331 135.055 555.598 134.625C555.865 134.189 556.203 133.85 556.613 133.609C557.03 133.362 557.525 133.238 558.098 133.238C558.228 133.238 558.378 133.255 558.547 133.287C558.716 133.313 558.833 133.342 558.898 133.375ZM564.758 144.195C564.022 144.195 563.355 144.072 562.756 143.824C562.163 143.57 561.652 143.215 561.223 142.76C560.799 142.304 560.474 141.764 560.246 141.139C560.018 140.514 559.904 139.83 559.904 139.088V138.678C559.904 137.818 560.031 137.053 560.285 136.383C560.539 135.706 560.884 135.133 561.32 134.664C561.757 134.195 562.251 133.84 562.805 133.6C563.358 133.359 563.931 133.238 564.523 133.238C565.279 133.238 565.93 133.368 566.477 133.629C567.03 133.889 567.482 134.254 567.834 134.723C568.186 135.185 568.446 135.732 568.615 136.363C568.785 136.988 568.869 137.672 568.869 138.414V139.225H560.979V137.75H567.062V137.613C567.036 137.145 566.939 136.689 566.77 136.246C566.607 135.803 566.346 135.439 565.988 135.152C565.63 134.866 565.142 134.723 564.523 134.723C564.113 134.723 563.736 134.811 563.391 134.986C563.046 135.156 562.749 135.41 562.502 135.748C562.255 136.087 562.062 136.5 561.926 136.988C561.789 137.477 561.721 138.04 561.721 138.678V139.088C561.721 139.589 561.789 140.061 561.926 140.504C562.069 140.94 562.274 141.324 562.541 141.656C562.814 141.988 563.143 142.249 563.527 142.438C563.918 142.626 564.361 142.721 564.855 142.721C565.493 142.721 566.034 142.59 566.477 142.33C566.919 142.07 567.307 141.721 567.639 141.285L568.732 142.154C568.505 142.499 568.215 142.828 567.863 143.141C567.512 143.453 567.079 143.707 566.564 143.902C566.057 144.098 565.454 144.195 564.758 144.195ZM578.635 144H576.828V132.32C576.828 131.559 576.968 130.917 577.248 130.396C577.535 129.869 577.945 129.472 578.479 129.205C579.019 128.932 579.673 128.795 580.441 128.795C580.728 128.795 581.086 128.824 581.516 128.883C581.952 128.941 582.414 129.016 582.902 129.107C583.397 129.199 583.879 129.293 584.348 129.391L583.508 130.699C582.889 130.582 582.333 130.494 581.838 130.436C581.343 130.37 580.923 130.338 580.578 130.338C580.155 130.338 579.797 130.416 579.504 130.572C579.217 130.722 578.999 130.943 578.85 131.236C578.706 131.529 578.635 131.891 578.635 132.32V144ZM582.541 144V129.391H584.348V144H582.541ZM580.881 133.434V134.82H575.158V133.434H580.881ZM593.537 142.193V136.754C593.537 136.337 593.452 135.976 593.283 135.67C593.12 135.357 592.873 135.117 592.541 134.947C592.209 134.778 591.799 134.693 591.311 134.693C590.855 134.693 590.454 134.771 590.109 134.928C589.771 135.084 589.504 135.289 589.309 135.543C589.12 135.797 589.025 136.07 589.025 136.363H587.219C587.219 135.986 587.316 135.611 587.512 135.24C587.707 134.869 587.987 134.534 588.352 134.234C588.723 133.928 589.165 133.688 589.68 133.512C590.201 133.329 590.78 133.238 591.418 133.238C592.186 133.238 592.863 133.368 593.449 133.629C594.042 133.889 594.504 134.283 594.836 134.811C595.174 135.331 595.344 135.986 595.344 136.773V141.695C595.344 142.047 595.373 142.421 595.432 142.818C595.497 143.215 595.591 143.557 595.715 143.844V144H593.83C593.739 143.792 593.667 143.515 593.615 143.17C593.563 142.818 593.537 142.493 593.537 142.193ZM593.85 137.594L593.869 138.863H592.043C591.529 138.863 591.07 138.906 590.666 138.99C590.262 139.068 589.924 139.189 589.65 139.352C589.377 139.514 589.169 139.719 589.025 139.967C588.882 140.208 588.811 140.491 588.811 140.816C588.811 141.148 588.885 141.451 589.035 141.725C589.185 141.998 589.41 142.216 589.709 142.379C590.015 142.535 590.389 142.613 590.832 142.613C591.385 142.613 591.874 142.496 592.297 142.262C592.72 142.027 593.055 141.741 593.303 141.402C593.557 141.064 593.693 140.735 593.713 140.416L594.484 141.285C594.439 141.559 594.315 141.861 594.113 142.193C593.911 142.525 593.641 142.844 593.303 143.15C592.971 143.45 592.574 143.701 592.111 143.902C591.656 144.098 591.141 144.195 590.568 144.195C589.852 144.195 589.224 144.055 588.684 143.775C588.15 143.495 587.733 143.121 587.434 142.652C587.141 142.177 586.994 141.646 586.994 141.061C586.994 140.494 587.105 139.996 587.326 139.566C587.548 139.13 587.867 138.769 588.283 138.482C588.7 138.189 589.201 137.968 589.787 137.818C590.373 137.669 591.027 137.594 591.75 137.594H593.85ZM605.031 133.434H606.672V143.775C606.672 144.706 606.483 145.501 606.105 146.158C605.728 146.816 605.201 147.314 604.523 147.652C603.853 147.997 603.078 148.17 602.199 148.17C601.835 148.17 601.405 148.111 600.91 147.994C600.422 147.883 599.94 147.691 599.465 147.418C598.996 147.151 598.602 146.79 598.283 146.334L599.23 145.26C599.673 145.794 600.135 146.165 600.617 146.373C601.105 146.581 601.587 146.686 602.062 146.686C602.635 146.686 603.13 146.578 603.547 146.363C603.964 146.148 604.286 145.829 604.514 145.406C604.748 144.99 604.865 144.475 604.865 143.863V135.758L605.031 133.434ZM597.756 138.834V138.629C597.756 137.822 597.85 137.089 598.039 136.432C598.234 135.768 598.511 135.198 598.869 134.723C599.234 134.247 599.673 133.883 600.188 133.629C600.702 133.368 601.281 133.238 601.926 133.238C602.59 133.238 603.169 133.355 603.664 133.59C604.165 133.818 604.589 134.153 604.934 134.596C605.285 135.032 605.562 135.559 605.764 136.178C605.965 136.796 606.105 137.496 606.184 138.277V139.176C606.112 139.951 605.972 140.647 605.764 141.266C605.562 141.884 605.285 142.411 604.934 142.848C604.589 143.284 604.165 143.619 603.664 143.854C603.163 144.081 602.577 144.195 601.906 144.195C601.275 144.195 600.702 144.062 600.188 143.795C599.68 143.528 599.243 143.154 598.879 142.672C598.514 142.19 598.234 141.624 598.039 140.973C597.85 140.315 597.756 139.602 597.756 138.834ZM599.562 138.629V138.834C599.562 139.361 599.615 139.856 599.719 140.318C599.829 140.781 599.995 141.188 600.217 141.539C600.445 141.891 600.734 142.167 601.086 142.369C601.438 142.564 601.857 142.662 602.346 142.662C602.945 142.662 603.439 142.535 603.83 142.281C604.221 142.027 604.53 141.692 604.758 141.275C604.992 140.859 605.174 140.406 605.305 139.918V137.564C605.233 137.206 605.122 136.861 604.973 136.529C604.829 136.191 604.641 135.891 604.406 135.631C604.178 135.364 603.895 135.152 603.557 134.996C603.218 134.84 602.821 134.762 602.365 134.762C601.87 134.762 601.444 134.866 601.086 135.074C600.734 135.276 600.445 135.556 600.217 135.914C599.995 136.266 599.829 136.676 599.719 137.145C599.615 137.607 599.562 138.102 599.562 138.629ZM620.529 141.197C620.529 140.937 620.471 140.696 620.354 140.475C620.243 140.247 620.012 140.042 619.66 139.859C619.315 139.671 618.794 139.508 618.098 139.371C617.512 139.247 616.981 139.101 616.506 138.932C616.037 138.762 615.637 138.557 615.305 138.316C614.979 138.076 614.729 137.792 614.553 137.467C614.377 137.141 614.289 136.76 614.289 136.324C614.289 135.908 614.38 135.514 614.562 135.143C614.751 134.771 615.015 134.443 615.354 134.156C615.699 133.87 616.112 133.645 616.594 133.482C617.076 133.32 617.613 133.238 618.205 133.238C619.051 133.238 619.774 133.388 620.373 133.688C620.972 133.987 621.431 134.387 621.75 134.889C622.069 135.383 622.229 135.934 622.229 136.539H620.422C620.422 136.246 620.334 135.963 620.158 135.689C619.989 135.41 619.738 135.178 619.406 134.996C619.081 134.814 618.68 134.723 618.205 134.723C617.704 134.723 617.297 134.801 616.984 134.957C616.678 135.107 616.454 135.299 616.311 135.533C616.174 135.768 616.105 136.015 616.105 136.275C616.105 136.471 616.138 136.646 616.203 136.803C616.275 136.952 616.398 137.092 616.574 137.223C616.75 137.346 616.997 137.464 617.316 137.574C617.635 137.685 618.042 137.796 618.537 137.906C619.403 138.102 620.116 138.336 620.676 138.609C621.236 138.883 621.652 139.218 621.926 139.615C622.199 140.012 622.336 140.494 622.336 141.061C622.336 141.523 622.238 141.946 622.043 142.33C621.854 142.714 621.577 143.046 621.213 143.326C620.855 143.6 620.425 143.814 619.924 143.971C619.429 144.12 618.872 144.195 618.254 144.195C617.323 144.195 616.535 144.029 615.891 143.697C615.246 143.365 614.758 142.936 614.426 142.408C614.094 141.881 613.928 141.324 613.928 140.738H615.744C615.77 141.233 615.913 141.627 616.174 141.92C616.434 142.206 616.753 142.411 617.131 142.535C617.508 142.652 617.883 142.711 618.254 142.711C618.749 142.711 619.162 142.646 619.494 142.516C619.833 142.385 620.09 142.206 620.266 141.979C620.441 141.751 620.529 141.49 620.529 141.197ZM627.678 142.906L630.617 133.434H632.551L628.312 145.631C628.215 145.891 628.085 146.171 627.922 146.471C627.766 146.777 627.564 147.066 627.316 147.34C627.069 147.613 626.77 147.835 626.418 148.004C626.073 148.18 625.66 148.268 625.178 148.268C625.035 148.268 624.852 148.248 624.631 148.209C624.41 148.17 624.253 148.137 624.162 148.111L624.152 146.646C624.204 146.653 624.286 146.66 624.396 146.666C624.514 146.679 624.595 146.686 624.641 146.686C625.051 146.686 625.399 146.63 625.686 146.52C625.972 146.415 626.213 146.236 626.408 145.982C626.61 145.735 626.783 145.393 626.926 144.957L627.678 142.906ZM625.52 133.434L628.264 141.637L628.732 143.541L627.434 144.205L623.547 133.434H625.52ZM640.334 141.197C640.334 140.937 640.275 140.696 640.158 140.475C640.048 140.247 639.816 140.042 639.465 139.859C639.12 139.671 638.599 139.508 637.902 139.371C637.316 139.247 636.786 139.101 636.311 138.932C635.842 138.762 635.441 138.557 635.109 138.316C634.784 138.076 634.533 137.792 634.357 137.467C634.182 137.141 634.094 136.76 634.094 136.324C634.094 135.908 634.185 135.514 634.367 135.143C634.556 134.771 634.82 134.443 635.158 134.156C635.503 133.87 635.917 133.645 636.398 133.482C636.88 133.32 637.417 133.238 638.01 133.238C638.856 133.238 639.579 133.388 640.178 133.688C640.777 133.987 641.236 134.387 641.555 134.889C641.874 135.383 642.033 135.934 642.033 136.539H640.227C640.227 136.246 640.139 135.963 639.963 135.689C639.794 135.41 639.543 135.178 639.211 134.996C638.885 134.814 638.485 134.723 638.01 134.723C637.508 134.723 637.102 134.801 636.789 134.957C636.483 135.107 636.258 135.299 636.115 135.533C635.979 135.768 635.91 136.015 635.91 136.275C635.91 136.471 635.943 136.646 636.008 136.803C636.079 136.952 636.203 137.092 636.379 137.223C636.555 137.346 636.802 137.464 637.121 137.574C637.44 137.685 637.847 137.796 638.342 137.906C639.208 138.102 639.921 138.336 640.48 138.609C641.04 138.883 641.457 139.218 641.73 139.615C642.004 140.012 642.141 140.494 642.141 141.061C642.141 141.523 642.043 141.946 641.848 142.33C641.659 142.714 641.382 143.046 641.018 143.326C640.66 143.6 640.23 143.814 639.729 143.971C639.234 144.12 638.677 144.195 638.059 144.195C637.128 144.195 636.34 144.029 635.695 143.697C635.051 143.365 634.562 142.936 634.23 142.408C633.898 141.881 633.732 141.324 633.732 140.738H635.549C635.575 141.233 635.718 141.627 635.979 141.92C636.239 142.206 636.558 142.411 636.936 142.535C637.313 142.652 637.688 142.711 638.059 142.711C638.553 142.711 638.967 142.646 639.299 142.516C639.637 142.385 639.895 142.206 640.07 141.979C640.246 141.751 640.334 141.49 640.334 141.197ZM648.938 133.434V134.82H643.225V133.434H648.938ZM645.158 130.865H646.965V141.383C646.965 141.741 647.02 142.011 647.131 142.193C647.242 142.376 647.385 142.496 647.561 142.555C647.736 142.613 647.925 142.643 648.127 142.643C648.277 142.643 648.433 142.63 648.596 142.604C648.765 142.571 648.892 142.545 648.977 142.525L648.986 144C648.843 144.046 648.654 144.088 648.42 144.127C648.192 144.173 647.915 144.195 647.59 144.195C647.147 144.195 646.74 144.107 646.369 143.932C645.998 143.756 645.702 143.463 645.48 143.053C645.266 142.636 645.158 142.076 645.158 141.373V130.865ZM655.441 144.195C654.706 144.195 654.038 144.072 653.439 143.824C652.847 143.57 652.336 143.215 651.906 142.76C651.483 142.304 651.158 141.764 650.93 141.139C650.702 140.514 650.588 139.83 650.588 139.088V138.678C650.588 137.818 650.715 137.053 650.969 136.383C651.223 135.706 651.568 135.133 652.004 134.664C652.44 134.195 652.935 133.84 653.488 133.6C654.042 133.359 654.615 133.238 655.207 133.238C655.962 133.238 656.613 133.368 657.16 133.629C657.714 133.889 658.166 134.254 658.518 134.723C658.869 135.185 659.13 135.732 659.299 136.363C659.468 136.988 659.553 137.672 659.553 138.414V139.225H651.662V137.75H657.746V137.613C657.72 137.145 657.622 136.689 657.453 136.246C657.29 135.803 657.03 135.439 656.672 135.152C656.314 134.866 655.826 134.723 655.207 134.723C654.797 134.723 654.419 134.811 654.074 134.986C653.729 135.156 653.433 135.41 653.186 135.748C652.938 136.087 652.746 136.5 652.609 136.988C652.473 137.477 652.404 138.04 652.404 138.678V139.088C652.404 139.589 652.473 140.061 652.609 140.504C652.753 140.94 652.958 141.324 653.225 141.656C653.498 141.988 653.827 142.249 654.211 142.438C654.602 142.626 655.044 142.721 655.539 142.721C656.177 142.721 656.717 142.59 657.16 142.33C657.603 142.07 657.99 141.721 658.322 141.285L659.416 142.154C659.188 142.499 658.898 142.828 658.547 143.141C658.195 143.453 657.762 143.707 657.248 143.902C656.74 144.098 656.138 144.195 655.441 144.195ZM663.459 135.533V144H661.643V133.434H663.361L663.459 135.533ZM663.088 138.316L662.248 138.287C662.255 137.564 662.349 136.897 662.531 136.285C662.714 135.667 662.984 135.13 663.342 134.674C663.7 134.218 664.146 133.867 664.68 133.619C665.214 133.365 665.832 133.238 666.535 133.238C667.03 133.238 667.486 133.31 667.902 133.453C668.319 133.59 668.68 133.808 668.986 134.107C669.292 134.407 669.53 134.791 669.699 135.26C669.868 135.729 669.953 136.295 669.953 136.959V144H668.146V137.047C668.146 136.493 668.052 136.051 667.863 135.719C667.681 135.387 667.421 135.146 667.082 134.996C666.743 134.84 666.346 134.762 665.891 134.762C665.357 134.762 664.911 134.856 664.553 135.045C664.195 135.234 663.908 135.494 663.693 135.826C663.479 136.158 663.322 136.539 663.225 136.969C663.133 137.392 663.088 137.841 663.088 138.316ZM669.934 137.32L668.723 137.691C668.729 137.112 668.824 136.555 669.006 136.021C669.195 135.488 669.465 135.012 669.816 134.596C670.174 134.179 670.614 133.85 671.135 133.609C671.656 133.362 672.251 133.238 672.922 133.238C673.488 133.238 673.99 133.313 674.426 133.463C674.868 133.613 675.24 133.844 675.539 134.156C675.845 134.462 676.076 134.856 676.232 135.338C676.389 135.82 676.467 136.393 676.467 137.057V144H674.65V137.037C674.65 136.445 674.556 135.986 674.367 135.66C674.185 135.328 673.924 135.097 673.586 134.967C673.254 134.83 672.857 134.762 672.395 134.762C671.997 134.762 671.646 134.83 671.34 134.967C671.034 135.104 670.777 135.292 670.568 135.533C670.36 135.768 670.201 136.038 670.09 136.344C669.986 136.65 669.934 136.975 669.934 137.32Z" fill="white"/>
<path d="M867.296 14.5137H866.793V20.462H867.296V14.5137Z" fill="#987554"/>
<path d="M867.296 14.5137L870.312 16.0217L867.296 17.5297V14.5137Z" fill="#07533A"/>
<path d="M872.323 19.876H871.82V27.081H872.323V19.876Z" fill="#987554"/>
<path d="M872.323 19.876L875.339 21.384L872.323 22.892V19.876Z" fill="#55FFFF"/>
<path d="M861.263 16.1885H860.761V24.1475H861.263V16.1885Z" fill="#987554"/>
<path d="M861.264 16.1885L864.28 17.6965L861.264 19.2045V16.1885Z" fill="white"/>
<path d="M856.321 12H855.818V17.9483H856.321V12Z" fill="#987554"/>
<path d="M856.321 12L859.337 13.508L856.321 15.016V12Z" fill="#22C55E"/>
<path d="M862.892 40.2059H876.036C876.455 40.2059 876.857 40.0586 877.22 39.8507C877.583 39.6429 877.957 39.3819 878.167 39.0218C878.377 38.6618 878.522 38.2533 878.522 37.8377C878.522 37.422 878.377 37.0136 878.167 36.6538L869.286 21.3791C869.077 21.0192 868.821 20.7581 868.458 20.5502C868.094 20.3425 867.574 20.195 867.155 20.195C866.736 20.195 866.334 20.3425 865.971 20.5502C865.608 20.7581 865.352 21.0192 865.142 21.3791L862.892 25.2866L858.393 17.7082C858.183 17.3483 857.927 16.969 857.564 16.7613C857.201 16.5534 856.799 16.5244 856.38 16.5244C855.961 16.5244 855.559 16.5534 855.196 16.7613C854.833 16.969 854.459 17.3483 854.249 17.7082L843.237 36.6538C843.027 37.0136 843 37.422 843 37.8377C843 38.2533 843.027 38.6617 843.237 39.0218C843.446 39.3818 843.821 39.6429 844.184 39.8507C844.547 40.0586 844.949 40.2059 845.368 40.2059H853.657C856.941 40.2059 859.331 38.7327 860.998 35.9433L865.024 28.9572L867.155 25.2866L873.668 36.4169H865.024L862.892 40.2059ZM853.538 36.4169H847.736L856.38 21.4975L860.761 28.9572L857.859 34.0161C856.752 35.826 855.491 36.4169 853.538 36.4169Z" fill="#00DC82"/>
</g>
<defs>
<filter id="filter0_f_473_137" x="-216.91" y="-136.91" width="1316.82" height="471.82" filterUnits="userSpaceOnUse" color-interpolation-filters="sRGB">
<feFlood flood-opacity="0" result="BackgroundImageFix"/>
<feBlend mode="normal" in="SourceGraphic" in2="BackgroundImageFix" result="shape"/>
<feGaussianBlur stdDeviation="67.955" result="effect1_foregroundBlur_473_137"/>
</filter>
<linearGradient id="paint0_linear_473_137" x1="442" y1="-95.5" x2="442" y2="99" gradientUnits="userSpaceOnUse">
<stop stop-color="#020420"/>
<stop offset="0.442308" stop-color="#00DC82"/>
<stop offset="1" stop-color="#00DC82" stop-opacity="0"/>
</linearGradient>
<clipPath id="clip0_473_137">
<rect width="896" height="230" fill="white"/>
</clipPath>
</defs>
</svg>
